<svg width="96" height="83" viewBox="0 0 96 83" fill="none" xmlns="http://www.w3.org/2000/svg">
<path d="M48 82.1667C18.6667 82.1667 18.6667 63.8333 18.6667 56.5C3.99999 56.5 -3.33334 41.8333 3.99999 30.8333C-3.33334 16.1667 11.3333 5.16667 26 12.5C33.3333 -2.16667 62.6667 -2.16667 70 12.5C84.6667 5.16667 99.3333 16.1667 92 30.8333C99.3333 41.8333 92 56.5 77.3333 56.5C77.3333 63.8333 77.3333 82.1667 48 82.1667Z" fill="#F0F9FF" stroke="#14B8A6" stroke-width="1.1" stroke-linecap="round"/>
<path d="M48 56.5V27.1667V56.5Z" fill="black"/>
<path d="M48 56.5V27.1667" stroke="#14B8A6" stroke-width="2.2" stroke-linecap="round"/>
<path d="M33.3333 41.8333L48 27.1667L62.6667 41.8333" fill="#396782"/>
<path d="M33.3333 41.8333L48 27.1667L62.6667 41.8333" stroke="#14B8A6" stroke-width="2.2" stroke-linecap="round" stroke-linejoin="round"/>
<path d="M42.5 56.5H31.5C30.4875 56.5 29.6667 57.3208 29.6667 58.3333V73C29.6667 74.0125 30.4875 74.8333 31.5 74.8333H42.5C43.5125 74.8333 44.3333 74.0125 44.3333 73V58.3333C44.3333 57.3208 43.5125 56.5 42.5 56.5Z" fill="white" stroke="#14B8A6" stroke-width="0.733333"/>
<path d="M33.3333 62H40.6667" stroke="#424242" stroke-width="0.733333" stroke-linecap="round"/>
<path d="M33.3333 65.6667H40.6667" stroke="#424242" stroke-width="0.733333" stroke-linecap="round"/>
<path d="M33.3333 69.3333H37" stroke="#424242" stroke-width="0.733333" stroke-linecap="round"/>
<path d="M49.396 55.0118L38.7709 57.8588C37.7928 58.1209 37.2124 59.1262 37.4745 60.1042L41.2705 74.2711C41.5326 75.2491 42.5379 75.8295 43.5159 75.5675L54.1411 72.7205C55.1191 72.4584 55.6995 71.4531 55.4374 70.4751L51.6414 56.3082C51.3794 55.3302 50.3741 54.7498 49.396 55.0118Z" fill="white" stroke="#14B8A6" stroke-width="0.733333"/>
<path d="M41.9652 62.6969L49.0487 60.7989" stroke="#424242" stroke-width="0.733333" stroke-linecap="round"/>
<path d="M42.9142 66.2387L49.9977 64.3407" stroke="#424242" stroke-width="0.733333" stroke-linecap="round"/>
<path d="M43.8632 69.7804L47.405 68.8314" stroke="#424242" stroke-width="0.733333" stroke-linecap="round"/>
<path d="M60.396 61.6549L49.7709 58.8078C48.7928 58.5458 47.7876 59.1262 47.5255 60.1042L43.7295 74.2711C43.4674 75.2491 44.0478 76.2544 45.0258 76.5165L55.651 79.3635C56.6291 79.6256 57.6343 79.0452 57.8964 78.0671L61.6924 63.9002C61.9545 62.9222 61.3741 61.9169 60.396 61.6549Z" fill="white" stroke="#14B8A6" stroke-width="0.733333"/>
<path d="M52.2364 70.8565C54.1925 71.3806 56.2031 70.2198 56.7272 68.2638C57.2513 66.3078 56.0905 64.2972 54.1345 63.7731C52.1784 63.2489 50.1678 64.4098 49.6437 66.3658C49.1196 68.3218 50.2804 70.3324 52.2364 70.8565Z" stroke="#424242" stroke-width="0.733333"/>
<path d="M47.7457 73.4492L54.8292 75.3473" stroke="#424242" stroke-width="0.733333" stroke-linecap="round"/>
</svg>
