<svg width="300" height="226" viewBox="0 0 300 226" fill="none" xmlns="http://www.w3.org/2000/svg">
<g clip-path="url(#clip0_1_31)">
<path opacity="0.8" d="M300 0.5H0V225.5H300V0.5Z" fill="#F0F9FF"/>
<path opacity="0.1" d="M0 60.5C56.25 90.5 131.25 0.5 187.5 38C243.75 75.5 281.25 56.75 300 30.5V0.5H0V60.5Z" fill="#14B8A6"/>
<path opacity="0.15" d="M0 188C56.25 169.25 131.25 244.25 187.5 206.75C243.75 169.25 281.25 150.5 300 176.75V225.5H0V188Z" fill="#14B8A6"/>
<path d="M202.5 94.25H97.5C95.4289 94.25 93.75 95.9289 93.75 98V158C93.75 160.071 95.4289 161.75 97.5 161.75H202.5C204.571 161.75 206.25 160.071 206.25 158V98C206.25 95.9289 204.571 94.25 202.5 94.25Z" fill="#396782"/>
<path d="M202.5 98H97.5V158H202.5V98Z" fill="#E0F2FE"/>
<path d="M223.125 161.75H76.875C75.8395 161.75 75 162.589 75 163.625V165.5C75 166.536 75.8395 167.375 76.875 167.375H223.125C224.161 167.375 225 166.536 225 165.5V163.625C225 162.589 224.161 161.75 223.125 161.75Z" fill="#396782"/>
<path d="M195 105.5H105V150.5H195V105.5Z" fill="white"/>
<path d="M162.375 111.125H111.375C110.961 111.125 110.625 111.461 110.625 111.875V114.125C110.625 114.539 110.961 114.875 111.375 114.875H162.375C162.789 114.875 163.125 114.539 163.125 114.125V111.875C163.125 111.461 162.789 111.125 162.375 111.125Z" fill="#14B8A6"/>
<path d="M188.625 118.625H111.375C110.961 118.625 110.625 118.961 110.625 119.375V119.75C110.625 120.164 110.961 120.5 111.375 120.5H188.625C189.039 120.5 189.375 120.164 189.375 119.75V119.375C189.375 118.961 189.039 118.625 188.625 118.625Z" fill="#94A3B8"/>
<path d="M181.125 124.25H111.375C110.961 124.25 110.625 124.586 110.625 125V125.375C110.625 125.789 110.961 126.125 111.375 126.125H181.125C181.539 126.125 181.875 125.789 181.875 125.375V125C181.875 124.586 181.539 124.25 181.125 124.25Z" fill="#94A3B8"/>
<path d="M188.625 129.875H111.375C110.961 129.875 110.625 130.211 110.625 130.625V131C110.625 131.414 110.961 131.75 111.375 131.75H188.625C189.039 131.75 189.375 131.414 189.375 131V130.625C189.375 130.211 189.039 129.875 188.625 129.875Z" fill="#94A3B8"/>
<path d="M142.875 137.375H112.125C111.297 137.375 110.625 138.047 110.625 138.875V143.375C110.625 144.203 111.297 144.875 112.125 144.875H142.875C143.703 144.875 144.375 144.203 144.375 143.375V138.875C144.375 138.047 143.703 137.375 142.875 137.375Z" fill="#14B8A6"/>
<path d="M225 131.75C235.355 131.75 243.75 123.355 243.75 113C243.75 102.645 235.355 94.25 225 94.25C214.645 94.25 206.25 102.645 206.25 113C206.25 123.355 214.645 131.75 225 131.75Z" fill="#49807A"/>
<path d="M225 107.375C230.178 107.375 234.375 103.178 234.375 98C234.375 92.8223 230.178 88.625 225 88.625C219.822 88.625 215.625 92.8223 215.625 98C215.625 103.178 219.822 107.375 225 107.375Z" fill="#14B8A6"/>
<path d="M232.5 109.25H217.5C216.464 109.25 215.625 110.089 215.625 111.125V129.875C215.625 130.911 216.464 131.75 217.5 131.75H232.5C233.536 131.75 234.375 130.911 234.375 129.875V111.125C234.375 110.089 233.536 109.25 232.5 109.25Z" fill="#49807A"/>
<path d="M225 105.5C229.142 105.5 232.5 102.142 232.5 98C232.5 93.8579 229.142 90.5 225 90.5C220.858 90.5 217.5 93.8579 217.5 98C217.5 102.142 220.858 105.5 225 105.5Z" fill="#E0F2FE"/>
<path d="M219.375 96.125C223.125 99.875 226.875 99.875 230.625 96.125" stroke="#0C4A6E" stroke-width="0.75"/>
<path d="M222 95.375C222.621 95.375 223.125 94.8713 223.125 94.25C223.125 93.6287 222.621 93.125 222 93.125C221.379 93.125 220.875 93.6287 220.875 94.25C220.875 94.8713 221.379 95.375 222 95.375Z" fill="#0C4A6E"/>
<path d="M228 95.375C228.621 95.375 229.125 94.8713 229.125 94.25C229.125 93.6287 228.621 93.125 228 93.125C227.379 93.125 226.875 93.6287 226.875 94.25C226.875 94.8713 227.379 95.375 228 95.375Z" fill="#0C4A6E"/>
<path d="M213.75 90.5C211.25 85.5 211.25 80.5 213.75 75.5C216.25 73 220 71.75 225 71.75C230 71.75 233.75 73 236.25 75.5C238.75 80.5 238.75 85.5 236.25 90.5" stroke="#8E4B28" stroke-width="1.875" stroke-linecap="round"/>
<path d="M215.625 92.375C215.625 91.3395 214.786 90.5 213.75 90.5C212.714 90.5 211.875 91.3395 211.875 92.375V94.25C211.875 95.2855 212.714 96.125 213.75 96.125C214.786 96.125 215.625 95.2855 215.625 94.25V92.375Z" fill="#8F8F8F"/>
<path d="M238.125 92.375C238.125 91.3395 237.286 90.5 236.25 90.5C235.214 90.5 234.375 91.3395 234.375 92.375V94.25C234.375 95.2855 235.214 96.125 236.25 96.125C237.286 96.125 238.125 95.2855 238.125 94.25V92.375Z" fill="#8F8F8F"/>
<path d="M243.75 101.75L251.25 94.25L258.75 98L255 105.5L243.75 101.75Z" fill="#396782" stroke="#14B8A6" stroke-width="0.75"/>
<path d="M247.5 120.5L240 128L232.5 124.25L236.25 116.75L247.5 120.5Z" fill="#396782" stroke="#14B8A6" stroke-width="0.75"/>
<path d="M187.5 86.75L191.25 75.5L202.5 79.25L195 90.5L187.5 86.75Z" fill="#396782" stroke="#14B8A6" stroke-width="0.75"/>
</g>
<defs>
<clipPath id="clip0_1_31">
<rect width="300" height="225" fill="white" transform="translate(0 0.5)"/>
</clipPath>
</defs>
</svg>
