<svg width="137" height="137" viewBox="0 0 137 137" fill="none" xmlns="http://www.w3.org/2000/svg">
<g clip-path="url(#clip0_1_1518)">
<mask id="mask0_1_1518" style="mask-type:luminance" maskUnits="userSpaceOnUse" x="17" y="32" width="555" height="555">
<path d="M571.073 32.8853H17.5263V586.432H571.073V32.8853Z" fill="white"/>
</mask>
<g mask="url(#mask0_1_1518)">
<path d="M17.5267 128.216H125.055C126.775 126.16 137.054 96.059 128.785 76.5196C121.685 59.7435 120.527 75.6134 109.499 64.1246C101.42 55.7087 116.496 42.4513 106.435 30.0518C90.3738 10.257 49.7049 -6.4499 42.8977 19.0858C36.8981 41.5908 4.98802 40.973 13.5544 64.5932C22.3974 88.975 6.70263 87.5886 6.75494 101.604C6.81168 116.827 11.5622 126.999 17.5267 128.216Z" fill="#F2F2F2"/>
</g>
<mask id="mask1_1_1518" style="mask-type:luminance" maskUnits="userSpaceOnUse" x="-1" y="-1" width="138" height="138">
<path d="M136.107 -0.000427246H-0.893402V137H136.107V-0.000427246Z" fill="white"/>
</mask>
<g mask="url(#mask1_1_1518)">
<path d="M93.7111 47.3204C92.96 48.031 92.927 49.5936 93.6376 50.3447C94.3483 51.0958 95.9108 51.1286 96.6619 50.4182C97.4131 49.7076 97.4461 48.145 96.7354 47.3939C96.0248 46.6428 94.4623 46.6098 93.7111 47.3204ZM93.0761 45.1451C93.4146 44.9608 93.7723 44.8256 94.1389 44.7394L94.4004 43.7172L96.145 43.7657L96.3493 44.8006C96.7106 44.9071 97.0604 45.0618 97.3883 45.2648L98.2953 44.7271L99.4947 45.995L98.9078 46.8708C99.0921 47.2096 99.2271 47.5673 99.3135 47.9339L100.335 48.1953L100.287 49.9399L99.2521 50.1445C99.1456 50.5056 98.9909 50.8551 98.7881 51.183L99.3254 52.0902L98.0577 53.2896L97.1819 52.7028C96.8431 52.8868 96.4854 53.022 96.1188 53.1082L95.8573 54.1304L94.1128 54.0819L93.9084 53.047C93.5473 52.9403 93.1976 52.7856 92.8697 52.5828L91.9625 53.1205L90.7631 51.8527L91.3501 50.9768C91.1658 50.638 91.0307 50.2803 90.9444 49.9137L89.9225 49.6523L89.971 47.9077L91.0059 47.7031C91.1123 47.342 91.2671 46.9925 91.4698 46.6646L90.9324 45.7574L92.2 44.558L93.0761 45.1451Z" stroke="#14B8A6" stroke-width="0.566907" stroke-miterlimit="6.6437" stroke-linejoin="round"/>
<path d="M20.6265 118.031C19.7249 118.884 19.6853 120.759 20.5382 121.661C21.3912 122.563 23.2667 122.602 24.1683 121.749C25.0699 120.896 25.1095 119.021 24.2565 118.119C23.4036 117.218 21.528 117.178 20.6265 118.031ZM19.8642 115.42C20.2706 115.199 20.6999 115.036 21.1399 114.933L21.4537 113.706L23.5478 113.764L23.793 115.006C24.2267 115.134 24.6465 115.32 25.0401 115.564L26.1288 114.918L27.5684 116.44L26.864 117.491C27.0852 117.898 27.2472 118.327 27.351 118.767L28.5776 119.081L28.5194 121.175L27.2772 121.421C27.1494 121.854 26.9637 122.274 26.7203 122.667L27.3652 123.756L25.8436 125.196L24.7924 124.491C24.3857 124.712 23.9564 124.875 23.5164 124.978L23.2025 126.205L21.1085 126.147L20.8633 124.905C20.4298 124.777 20.01 124.591 19.6165 124.347L18.5275 124.993L17.0879 123.471L17.7926 122.42C17.5713 122.013 17.4091 121.584 17.3056 121.144L16.079 120.83L16.1372 118.736L17.3793 118.49C17.5071 118.057 17.6929 117.637 17.9362 117.244L17.2911 116.155L18.8127 114.715L19.8642 115.42Z" stroke="#9F9F9F" stroke-width="0.675155" stroke-miterlimit="7.9743" stroke-linejoin="round"/>
<path d="M29.6088 83.8409C29.0093 84.408 28.9829 85.6552 29.5501 86.2547C30.1173 86.8542 31.3644 86.8803 31.9639 86.3133C32.5634 85.7462 32.5898 84.499 32.0226 83.8995C31.4554 83.3 30.2083 83.2737 29.6088 83.8409ZM29.1019 82.1046C29.3721 81.9575 29.6576 81.8497 29.9502 81.7808L30.1589 80.965L31.5513 81.0037L31.7144 81.8297C32.0028 81.9147 32.2819 82.0382 32.5436 82.2002L33.2675 81.771L34.2248 82.783L33.7564 83.482C33.9036 83.7524 34.0112 84.0379 34.0803 84.3305L34.8959 84.5392L34.8572 85.9316L34.0312 86.0949C33.9462 86.3831 33.8227 86.662 33.6609 86.9237L34.0897 87.6478L33.0779 88.6051L32.3789 88.1367C32.1085 88.2837 31.823 88.3915 31.5304 88.4604L31.3217 89.2762L29.9293 89.2375L29.7662 88.4115C29.478 88.3263 29.1989 88.2028 28.9372 88.041L28.2131 88.4702L27.2558 87.4582L27.7244 86.7592C27.5773 86.4888 27.4694 86.2033 27.4005 85.9107L26.5849 85.702L26.6236 84.3096L27.4496 84.1463C27.5346 83.8581 27.6581 83.5792 27.8199 83.3175L27.3909 82.5934L28.4027 81.6361L29.1019 82.1046Z" stroke="#14B8A6" stroke-width="0.452615" stroke-miterlimit="5.3026" stroke-linejoin="round"/>
<path d="M48.7298 31.7129C48.0297 32.3752 47.999 33.8315 48.6613 34.5316C49.3236 35.2316 50.7799 35.2622 51.48 34.6001C52.18 33.9378 52.2108 32.4814 51.5485 31.7814C50.8862 31.0813 49.4299 31.0506 48.7298 31.7129ZM48.1379 29.6854C48.4535 29.5137 48.7868 29.3877 49.1285 29.3073L49.3722 28.3547L50.9981 28.3998L51.1886 29.3644C51.5254 29.4636 51.8513 29.6078 52.1569 29.797L53.0023 29.2959L54.1201 30.4775L53.5732 31.2938C53.7449 31.6096 53.8707 31.943 53.9513 32.2846L54.9037 32.5283L54.8585 34.1543L53.894 34.3449C53.7948 34.6815 53.6506 35.0072 53.4616 35.3128L53.9623 36.1584L52.7808 37.2762L51.9646 36.7293C51.6488 36.9009 51.3154 37.0268 50.9738 37.1072L50.7301 38.0598L49.1041 38.0147L48.9137 37.0502C48.5771 36.9507 48.2511 36.8065 47.9455 36.6175L47.1 37.1187L45.9822 35.937L46.5293 35.1207C46.3575 34.8049 46.2316 34.4715 46.1512 34.1299L45.1988 33.8862L45.2439 32.2602L46.2084 32.0696C46.3077 31.733 46.4519 31.4073 46.6409 31.1017L46.1399 30.2561L47.3214 29.1383L48.1379 29.6854Z" stroke="#9F9F9F" stroke-width="0.525266" stroke-miterlimit="6.192" stroke-linejoin="round"/>
<path d="M114.923 115.979C114.021 116.832 113.981 118.707 114.834 119.609C115.687 120.51 117.563 120.55 118.464 119.697C119.366 118.844 119.406 116.969 118.553 116.067C117.7 115.165 115.824 115.126 114.923 115.979ZM114.16 113.368C114.567 113.147 114.996 112.984 115.436 112.881L115.75 111.654L117.844 111.712L118.089 112.954C118.523 113.082 118.943 113.268 119.336 113.511L120.425 112.866L121.864 114.388L121.16 115.439C121.381 115.846 121.543 116.275 121.647 116.715L122.874 117.029L122.815 119.123L121.573 119.369C121.446 119.802 121.26 120.221 121.016 120.615L121.661 121.704L120.14 123.144L119.088 122.439C118.682 122.66 118.252 122.822 117.812 122.926L117.499 124.153L115.405 124.095L115.159 122.852C114.726 122.724 114.306 122.539 113.913 122.295L112.824 122.941L111.384 121.419L112.089 120.368C111.867 119.961 111.705 119.532 111.602 119.092L110.375 118.778L110.433 116.684L111.675 116.438C111.803 116.005 111.989 115.585 112.232 115.192L111.587 114.103L113.109 112.663L114.16 113.368Z" stroke="#14B8A6" stroke-width="0.675155" stroke-miterlimit="7.9743" stroke-linejoin="round"/>
</g>
<mask id="mask2_1_1518" style="mask-type:luminance" maskUnits="userSpaceOnUse" x="-277" y="-245" width="460" height="460">
<path d="M114.224 -244.86L-276.863 -177.072L-209.075 214.015L182.012 146.227L114.224 -244.86Z" fill="white"/>
</mask>
<g mask="url(#mask2_1_1518)">
<path d="M58.4168 89.5147L58.478 71.4749L76.6307 71.5367L76.5693 89.5763L58.4168 89.5147ZM75.6075 40.7895C78.619 39.0239 80.1316 36.589 80.1423 33.4886C80.1513 30.8424 79.2561 28.8152 77.4568 27.4102C75.6577 26.0053 73.1039 25.2973 69.7971 25.2861C66.6402 25.2754 63.6871 25.9047 60.9398 27.1726C58.1908 28.4425 55.4977 30.3869 52.8585 33.0082L42.5242 21.6118C45.8431 18.0415 49.7428 15.1445 54.2233 12.9205C58.7021 10.6966 64.0245 9.59435 70.1887 9.61516C74.2477 9.62906 77.9401 10.1488 81.268 11.1749C84.596 12.2009 87.4519 13.7152 89.8357 15.714C92.2178 17.7145 94.0574 20.1819 95.3547 23.1179C96.6519 26.0537 97.294 29.4014 97.2812 33.159C97.269 36.7671 96.6789 39.8657 95.5127 42.4549C94.3466 45.0442 92.7711 47.2374 90.7865 49.0348C88.8002 50.832 86.4611 52.2723 83.7691 53.3518C81.0771 54.4332 78.1886 55.269 75.1052 55.8592L73.8418 62.7327L62.3414 62.6936L59.8102 44.4195L60.3759 43.8578C67.517 43.579 72.5942 42.5567 75.6075 40.7895Z" fill="#ACACAC"/>
<path d="M56.1814 91.4123L56.2447 72.7343L75.0396 72.7981L74.9761 91.4762L56.1814 91.4123ZM73.9802 40.963C77.0983 39.1349 78.6647 36.614 78.6756 33.4037C78.6847 30.6638 77.7581 28.5649 75.8951 27.1103C74.0322 25.6557 71.388 24.9226 67.9645 24.911C64.6957 24.8999 61.6382 25.5515 58.7937 26.8643C55.9473 28.1791 53.1588 30.1924 50.4263 32.9064L39.7265 21.1067C43.1626 17.41 47.2004 14.4106 51.8396 12.1079C56.4767 9.80536 61.9873 8.66389 68.3698 8.68554C72.5722 8.69976 76.3956 9.2381 79.8411 10.3006C83.2868 11.3628 86.2438 12.9305 88.7118 15.0001C91.1783 17.0716 93.083 19.6262 94.4262 22.666C95.7693 25.7058 96.4341 29.172 96.421 33.0625C96.4083 36.7982 95.7974 40.0065 94.5899 42.6874C93.3824 45.3683 91.7512 47.6391 89.6966 49.5C87.64 51.3608 85.218 52.852 82.4307 53.9698C79.6434 55.0894 76.6526 55.9546 73.4604 56.566L72.152 63.6827L60.2448 63.6422L57.6241 44.7214L58.2097 44.1397C65.6035 43.8511 70.8604 42.7929 73.9802 40.963Z" stroke="#7C7B7B" stroke-width="0.597978" stroke-miterlimit="28.9722"/>
</g>
<mask id="mask3_1_1518" style="mask-type:luminance" maskUnits="userSpaceOnUse" x="-1" y="-4" width="138" height="138">
<path d="M136.94 -3.13794H-0.0600586V133.862H136.94V-3.13794Z" fill="white"/>
</mask>
<g mask="url(#mask3_1_1518)">
<path d="M24.7285 61.8896L26.2241 57.2471L30.8957 58.752L29.4001 63.3945L24.7285 61.8896ZM33.1542 50.7466C34.0749 50.5389 34.6643 50.0356 34.9214 49.2377C35.1407 48.5567 35.0764 47.9611 34.7281 47.4515C34.3799 46.942 33.78 46.5501 32.929 46.2759C32.1165 46.0142 31.3041 45.9341 30.4924 46.0354C29.6799 46.1371 28.8266 46.4171 27.9316 46.876L26.2041 43.0922C27.352 42.4447 28.5943 42.0182 29.931 41.8127C31.2673 41.6072 32.7289 41.7597 34.3153 42.2707C35.3599 42.6073 36.2686 43.0441 37.0417 43.5814C37.8149 44.1188 38.4265 44.7431 38.8767 45.4536C39.3263 46.1644 39.5978 46.951 39.6912 47.8138C39.7846 48.6766 39.6754 49.5917 39.3639 50.5587C39.0648 51.4873 38.6586 52.2371 38.1457 52.8085C37.6329 53.3799 37.0471 53.8158 36.3884 54.116C35.7293 54.4161 35.0085 54.5953 34.2264 54.6526C33.4442 54.7104 32.6314 54.6887 31.7886 54.5879L30.8993 56.255L27.9397 55.3016L28.7866 50.386L28.9784 50.2877C30.841 50.8017 32.2329 50.9548 33.1542 50.7466Z" fill="#14B8A6"/>
<path d="M23.9923 62.1968L25.5408 57.3899L30.3776 58.9481L28.8291 63.7549L23.9923 62.1968ZM32.716 50.6595C33.6693 50.4444 34.2796 49.9234 34.5458 49.0972C34.7729 48.3921 34.7063 47.7754 34.3457 47.2478C33.9851 46.7202 33.364 46.3145 32.4829 46.0306C31.6417 45.7597 30.8005 45.6767 29.9601 45.7816C29.1189 45.8869 28.2353 46.1768 27.3087 46.6519L25.52 42.7343C26.7085 42.0637 27.9948 41.6222 29.3789 41.4095C30.7625 41.1967 32.2758 41.3546 33.9183 41.8837C34.9998 42.2321 35.9406 42.6845 36.7412 43.2408C37.5418 43.7971 38.1749 44.4436 38.641 45.1792C39.1065 45.9152 39.3877 46.7296 39.4844 47.6229C39.5811 48.5162 39.4681 49.4637 39.1455 50.465C38.8358 51.4263 38.4153 52.2028 37.8843 52.7944C37.3532 53.386 36.7467 53.8373 36.0647 54.1481C35.3823 54.4588 34.636 54.6444 33.8262 54.7037C33.0163 54.7635 32.1748 54.7411 31.3022 54.6367L30.3814 56.3629L27.317 55.3757L28.1939 50.2862L28.3925 50.1844C30.3211 50.7165 31.7622 50.8751 32.716 50.6595Z" stroke="#7C7B7B" stroke-width="0.129804" stroke-miterlimit="9.4767"/>
<path d="M22.7686 105.818L20.6025 99.6624L26.7962 97.4828L28.9622 103.638L22.7686 105.818ZM22.72 87.1285C23.5323 86.1618 23.7526 85.1486 23.3803 84.0907C23.0626 83.1878 22.5118 82.6055 21.7283 82.3448C20.9449 82.0842 19.9887 82.1525 18.8604 82.5496C17.7833 82.9286 16.8532 83.5011 16.0707 84.2662C15.2878 85.0323 14.6057 86.0214 14.0241 87.2346L9.12072 84.6037C9.81892 82.9846 10.7967 81.5246 12.054 80.2235C13.3107 78.9227 14.9909 77.9018 17.0941 77.1616C18.479 76.6743 19.8004 76.4038 21.0589 76.35C22.3174 76.2962 23.4742 76.466 24.5289 76.8582C25.5832 77.2512 26.5093 77.869 27.3073 78.7123C28.1053 79.5555 28.7299 80.6185 29.1811 81.9006C29.6144 83.1317 29.7889 84.2592 29.7054 85.283C29.6219 86.3067 29.3509 87.2452 28.8924 88.0983C28.4334 88.9515 27.8109 89.726 27.0243 90.4202C26.238 91.1151 25.355 91.7501 24.3758 92.325L24.7785 94.8206L20.8545 96.2014L17.7766 90.2807L17.9013 90.0207C20.3011 89.06 21.9074 88.0961 22.72 87.1285Z" fill="#434D56"/>
<path d="M22.2342 106.739L19.9914 100.367L26.4043 98.1098L28.647 104.483L22.2342 106.739ZM22.1838 87.3892C23.0248 86.3882 23.253 85.3392 22.8676 84.2438C22.5385 83.309 21.9683 82.7061 21.157 82.4362C20.3458 82.1663 19.3559 82.2371 18.1878 82.6481C17.0725 83.0406 16.1095 83.6334 15.2993 84.4256C14.4886 85.2187 13.7824 86.2429 13.1802 87.499L8.10337 84.775C8.82623 83.0986 9.83864 81.587 11.1405 80.2398C12.4416 78.893 14.1812 77.8359 16.3589 77.0696C17.7927 76.565 19.1609 76.2849 20.4639 76.2293C21.767 76.1736 22.9648 76.3493 24.0567 76.7554C25.1484 77.1623 26.1072 77.802 26.9335 78.6751C27.7597 79.5482 28.4065 80.6489 28.8736 81.9763C29.3222 83.2509 29.5029 84.4183 29.4164 85.4783C29.3299 86.5383 29.0493 87.5099 28.5747 88.3932C28.0995 89.2767 27.4548 90.0785 26.6405 90.7973C25.8263 91.5168 24.912 92.1742 23.8982 92.7695L24.3151 95.3534L20.2524 96.7831L17.0655 90.6529L17.1945 90.3836C19.6793 89.3889 21.3425 88.391 22.1838 87.3892Z" stroke="#7C7B7B" stroke-width="0.215145" stroke-miterlimit="10.4795"/>
<path d="M116.381 64.8938L114.667 59.5485L120.045 57.8235L121.76 63.1687L116.381 64.8938ZM116.79 48.8212C117.511 48.0094 117.725 47.1435 117.431 46.2248C117.179 45.4407 116.72 44.9267 116.052 44.6837C115.385 44.4406 114.561 44.4763 113.581 44.7905C112.646 45.0906 111.832 45.5605 111.141 46.1996C110.449 46.8394 109.839 47.6736 109.309 48.7029L105.156 46.3223C105.795 44.9469 106.671 43.7149 107.784 42.6263C108.896 41.538 110.365 40.7005 112.192 40.1148C113.395 39.729 114.537 39.5282 115.621 39.5124C116.705 39.4964 117.695 39.6703 118.593 40.033C119.49 40.3964 120.271 40.9499 120.937 41.6944C121.603 42.4388 122.115 43.3679 122.472 44.4813C122.815 45.5504 122.938 46.5241 122.841 47.4025C122.745 48.2809 122.489 49.0814 122.074 49.8039C121.659 50.5266 121.105 51.1775 120.412 51.7555C119.719 52.3341 118.944 52.859 118.088 53.3298L118.374 55.4855L114.967 56.5784L112.463 51.4128L112.576 51.1921C114.663 50.4238 116.068 49.6337 116.79 48.8212Z" fill="#434D56"/>
<path d="M115.901 65.6744L114.126 60.1401L119.695 58.3539L121.47 63.8883L115.901 65.6744ZM116.324 49.0332C117.071 48.1926 117.293 47.2961 116.988 46.3449C116.727 45.5331 116.251 45.0008 115.56 44.7492C114.869 44.4976 114.016 44.5346 113.002 44.8599C112.033 45.1706 111.191 45.657 110.475 46.3188C109.759 46.9812 109.127 47.845 108.579 48.9106L104.279 46.4458C104.941 45.0217 105.848 43.7461 107 42.619C108.151 41.4922 109.672 40.6252 111.563 40.0186C112.809 39.6192 113.992 39.4114 115.114 39.3949C116.236 39.3784 117.261 39.5585 118.191 39.934C119.12 40.3102 119.929 40.8834 120.618 41.6541C121.308 42.4249 121.837 43.3869 122.207 44.5397C122.562 45.6466 122.689 46.6548 122.589 47.5643C122.49 48.4738 122.225 49.3025 121.795 50.0506C121.365 50.7989 120.792 51.4729 120.074 52.0714C119.357 52.6704 118.555 53.2138 117.668 53.7013L117.965 55.9333L114.436 57.0649L111.844 51.7164L111.961 51.488C114.122 50.6925 115.576 49.8744 116.324 49.0332Z" stroke="#7C7B7B" stroke-width="0.293943" stroke-miterlimit="14.2947"/>
<path d="M21.3592 34.5898L20.2173 31.314L23.5136 30.165L24.6554 33.4408L21.3592 34.5898ZM21.3628 24.6538C21.7962 24.1412 21.9149 23.6029 21.7187 23.0399C21.5512 22.5593 21.2593 22.2489 20.8432 22.1091C20.427 21.9693 19.9186 22.0041 19.3182 22.2134C18.7449 22.4132 18.2495 22.7161 17.8323 23.1216C17.4149 23.5276 17.0507 24.0524 16.7396 24.6965L14.1369 23.2901C14.5106 22.4304 15.0327 21.6558 15.7032 20.966C16.3734 20.2764 17.2683 19.7363 18.3876 19.3462C19.1246 19.0892 19.8276 18.9475 20.4967 18.9209C21.1659 18.8943 21.7806 18.9864 22.3407 19.1966C22.9006 19.4072 23.392 19.7371 23.8149 20.1867C24.2378 20.6362 24.5683 21.2024 24.8061 21.8847C25.0345 22.5399 25.1255 23.1396 25.0795 23.6837C25.0334 24.2279 24.8879 24.7263 24.6428 25.1791C24.3975 25.6321 24.0653 26.0428 23.646 26.4106C23.2269 26.7788 22.7564 27.115 22.2349 27.4191L22.445 28.7465L20.3567 29.4745L18.7297 26.3219L18.7964 26.1838C20.0738 25.6769 20.9293 25.167 21.3628 24.6538Z" fill="#434D56"/>
<path d="M21.0731 35.0753L19.8908 31.6837L23.3037 30.494L24.486 33.8857L21.0731 35.0753ZM21.0769 24.7878C21.5256 24.257 21.6485 23.6997 21.4453 23.1167C21.2719 22.6192 20.9697 22.2978 20.5388 22.153C20.108 22.0082 19.5815 22.0443 18.9598 22.261C18.3663 22.4679 17.8534 22.7815 17.4214 23.2014C16.9892 23.6218 16.6121 24.1651 16.29 24.832L13.5952 23.3758C13.9822 22.4857 14.5228 21.6836 15.217 20.9695C15.9109 20.2555 16.8374 19.6963 17.9963 19.2923C18.7595 19.0263 19.4873 18.8796 20.1801 18.852C20.8729 18.8245 21.5095 18.9198 22.0894 19.1374C22.6691 19.3555 23.1778 19.6971 23.6157 20.1626C24.0536 20.628 24.3957 21.2142 24.642 21.9207C24.8784 22.599 24.9727 23.2199 24.925 23.7833C24.8774 24.3468 24.7267 24.8629 24.4729 25.3317C24.2189 25.8006 23.8749 26.2259 23.4408 26.6068C23.0069 26.988 22.5197 27.3361 21.9798 27.651L22.1974 29.0253L20.0352 29.779L18.3506 26.5149L18.4196 26.3719C19.7422 25.847 20.628 25.3191 21.0769 24.7878Z" stroke="#7C7B7B" stroke-width="0.0540072" stroke-miterlimit="3.9396"/>
<path d="M100.84 20.046L100.862 18.0088L102.912 18.0314L102.89 20.0685L100.84 20.046ZM102.823 14.5582C103.165 14.3615 103.338 14.0878 103.341 13.7377C103.345 13.4388 103.245 13.2091 103.043 13.0489C102.841 12.8887 102.554 12.8066 102.18 12.8025C101.824 12.7985 101.49 12.8671 101.178 13.0079C100.867 13.1489 100.561 13.3662 100.261 13.66L99.1035 12.3641C99.4813 11.9638 99.9242 11.6399 100.432 11.3926C100.94 11.1453 101.542 11.0254 102.238 11.0331C102.696 11.0381 103.113 11.1 103.488 11.2188C103.863 11.3375 104.184 11.5109 104.451 11.7387C104.719 11.9667 104.924 12.2469 105.068 12.5796C105.212 12.9122 105.282 13.2909 105.277 13.7152C105.273 14.1226 105.203 14.472 105.069 14.7634C104.936 15.0548 104.756 15.3012 104.53 15.5024C104.304 15.7037 104.039 15.8643 103.734 15.9839C103.429 16.1037 103.102 16.1956 102.753 16.2596L102.605 17.0348L101.306 17.0205L101.036 14.9546L101.1 14.8916C101.907 14.8663 102.481 14.7552 102.823 14.5582Z" fill="#434D56"/>
<path d="M100.584 20.2558L100.607 18.1466L102.729 18.17L102.706 20.2792L100.584 20.2558ZM102.637 14.5739C102.991 14.3702 103.17 14.0868 103.174 13.7243C103.177 13.4149 103.074 13.1771 102.865 13.0112C102.656 12.8453 102.358 12.7603 101.972 12.756C101.602 12.752 101.257 12.8229 100.934 12.9687C100.612 13.1148 100.295 13.3397 99.9841 13.6439L98.7859 12.3021C99.1772 11.8876 99.6357 11.5524 100.162 11.2963C100.687 11.0403 101.311 10.9161 102.031 10.9241C102.506 10.9293 102.937 10.9933 103.325 11.1163C103.714 11.2392 104.046 11.4188 104.323 11.6546C104.6 11.8907 104.813 12.1808 104.962 12.5253C105.111 12.8697 105.183 13.2617 105.178 13.7011C105.173 14.1229 105.102 14.4847 104.963 14.7864C104.824 15.0881 104.638 15.3432 104.405 15.5515C104.171 15.7599 103.896 15.9262 103.58 16.0501C103.265 16.1741 102.926 16.2692 102.565 16.3355L102.411 17.1381L101.066 17.1233L100.787 14.9843L100.853 14.9191C101.689 14.8929 102.283 14.7779 102.637 14.5739Z" stroke="#7C7B7B" stroke-width="0.0316788" stroke-miterlimit="2.3136"/>
<path d="M115.488 30.1163L115.997 27.571L118.558 28.0828L118.049 30.6282L115.488 30.1163ZM119.266 23.7133C119.74 23.5475 120.021 23.2457 120.108 22.8082C120.183 22.4348 120.113 22.1238 119.898 21.8756C119.683 21.6274 119.342 21.4566 118.875 21.3634C118.43 21.2743 117.995 21.2814 117.572 21.3842C117.149 21.4873 116.715 21.6872 116.27 21.9841L115.126 20.0887C115.694 19.6766 116.325 19.3756 117.019 19.1858C117.713 18.996 118.495 18.9879 119.365 19.1617C119.937 19.2761 120.444 19.4518 120.886 19.689C121.327 19.9261 121.689 20.219 121.97 20.5673C122.251 20.9158 122.442 21.3151 122.544 21.7656C122.645 22.2161 122.643 22.7066 122.537 23.2367C122.436 23.7458 122.266 24.1669 122.03 24.5002C121.794 24.8334 121.51 25.0994 121.18 25.2982C120.85 25.4969 120.48 25.6354 120.07 25.7132C119.66 25.7913 119.229 25.8292 118.777 25.8271L118.408 26.7625L116.786 26.4382L116.935 23.788L117.03 23.7243C118.046 23.8829 118.791 23.8793 119.266 23.7133Z" fill="#14B8A6"/>
<path d="M115.117 30.3254L115.644 27.69L118.296 28.22L117.769 30.8553L115.117 30.3254ZM119.029 23.6958C119.52 23.5242 119.811 23.2116 119.901 22.7587C119.978 22.3721 119.906 22.0501 119.683 21.7931C119.46 21.5361 119.107 21.3593 118.624 21.2627C118.163 21.1706 117.713 21.1778 117.275 21.2843C116.837 21.3911 116.387 21.598 115.926 21.9055L114.743 19.9429C115.33 19.5162 115.984 19.2047 116.702 19.0081C117.421 18.8116 118.231 18.8032 119.131 18.9831C119.724 19.1016 120.249 19.2836 120.706 19.5291C121.163 19.7746 121.537 20.0779 121.828 20.4385C122.119 20.7993 122.317 21.2128 122.423 21.6792C122.528 22.1456 122.526 22.6535 122.416 23.2024C122.311 23.7295 122.135 24.1655 121.891 24.5105C121.646 24.8556 121.353 25.131 121.011 25.3368C120.669 25.5425 120.286 25.6859 119.861 25.7665C119.437 25.8473 118.99 25.8866 118.523 25.8844L118.141 26.8529L116.461 26.5172L116.615 23.7732L116.714 23.7073C117.766 23.8715 118.537 23.8677 119.029 23.6958Z" stroke="#7C7B7B" stroke-width="0.040353" stroke-miterlimit="2.9477"/>
<path d="M33.6878 18.668L33.3745 17.3158L34.7352 17.0006L35.0485 18.3528L33.6878 18.668ZM34.1168 14.7157C34.3112 14.5304 34.3816 14.3214 34.3278 14.089C34.2818 13.8907 34.1791 13.7546 34.0195 13.6811C33.86 13.6076 33.6563 13.5995 33.4084 13.657C33.1718 13.7118 32.9617 13.811 32.7783 13.9543C32.5948 14.0979 32.4273 14.291 32.2758 14.5338L31.301 13.8623C31.4867 13.5365 31.7277 13.2508 32.0241 13.0052C32.3204 12.7598 32.6996 12.5834 33.1616 12.4764C33.4658 12.4059 33.7516 12.3797 34.0189 12.398C34.2862 12.4162 34.5268 12.4792 34.7406 12.587C34.9542 12.6948 35.1355 12.8472 35.2844 13.0442C35.4333 13.2413 35.5404 13.4807 35.6056 13.7623C35.6683 14.0328 35.6787 14.2752 35.637 14.4897C35.5952 14.7042 35.5159 14.8962 35.3989 15.0658C35.2818 15.2354 35.132 15.3845 34.9494 15.5128C34.7668 15.6412 34.5652 15.7547 34.3447 15.8533L34.3712 16.3903L33.5092 16.5901L32.9976 15.266L33.03 15.2139C33.56 15.0672 33.9222 14.9012 34.1168 14.7157Z" fill="#14B8A6"/>
<path d="M33.5533 18.8508L33.2289 17.4507L34.6377 17.1243L34.9621 18.5244L33.5533 18.8508ZM33.9974 14.7586C34.1987 14.5668 34.2716 14.3504 34.2159 14.1097C34.1683 13.9044 34.0619 13.7635 33.8967 13.6874C33.7316 13.6113 33.5206 13.6029 33.264 13.6624C33.019 13.7192 32.8015 13.8218 32.6116 13.9703C32.4215 14.1189 32.2482 14.3188 32.0913 14.5703L31.082 13.8751C31.2742 13.5376 31.5238 13.2418 31.8307 12.9876C32.1374 12.7335 32.53 12.5509 33.0084 12.44C33.3235 12.367 33.6193 12.34 33.8961 12.3588C34.1729 12.3777 34.422 12.443 34.6433 12.5545C34.8645 12.6662 35.0522 12.824 35.2063 13.028C35.3605 13.232 35.4714 13.4799 35.5389 13.7715C35.6038 14.0515 35.6146 14.3026 35.5714 14.5246C35.5282 14.7467 35.4461 14.9455 35.3249 15.1211C35.2037 15.2967 35.0486 15.4511 34.8595 15.5839C34.6705 15.7169 34.4617 15.8344 34.2334 15.9364L34.2608 16.4925L33.3683 16.6993L32.8386 15.3284L32.8722 15.2745C33.4209 15.1226 33.796 14.9507 33.9974 14.7586Z" stroke="#7C7B7B" stroke-width="0.0215981" stroke-miterlimit="1.5763"/>
<path d="M113.79 102.685L114.309 99.2385L117.777 99.7613L117.257 103.208L113.79 102.685ZM118.447 93.8558C119.072 93.6031 119.43 93.1804 119.519 92.588C119.595 92.0825 119.481 91.6699 119.177 91.3507C118.873 91.0315 118.405 90.8243 117.773 90.7291C117.17 90.6382 116.588 90.6753 116.027 90.8403C115.466 91.0056 114.896 91.3014 114.318 91.7282L112.664 89.2591C113.398 88.6701 114.225 88.2262 115.144 87.9272C116.063 87.6283 117.111 87.5674 118.289 87.7449C119.064 87.8618 119.755 88.0651 120.363 88.3549C120.97 88.6447 121.473 89.0145 121.872 89.4637C122.271 89.9131 122.553 90.4365 122.719 91.0342C122.884 91.6318 122.912 92.2897 122.804 93.0076C122.7 93.6968 122.5 94.2725 122.205 94.7345C121.909 95.1966 121.546 95.5714 121.116 95.8591C120.686 96.1467 120.198 96.3561 119.653 96.4866C119.108 96.6175 118.533 96.696 117.927 96.722L117.492 98.0001L115.295 97.6689L115.325 94.1049L115.449 94.0134C116.822 94.1612 117.821 94.1088 118.447 93.8558Z" fill="#14B8A6"/>
<path d="M113.306 102.985L113.844 99.4173L117.435 99.9586L116.897 103.527L113.306 102.985ZM118.128 93.8441C118.776 93.5825 119.146 93.1448 119.239 92.5315C119.317 92.0081 119.199 91.5808 118.884 91.2503C118.569 90.9199 118.084 90.7054 117.43 90.6067C116.806 90.5126 116.203 90.5511 115.623 90.7219C115.042 90.8931 114.452 91.1993 113.853 91.6412L112.14 89.0847C112.901 88.4749 113.757 88.0152 114.709 87.7057C115.66 87.3962 116.745 87.3332 117.965 87.517C118.767 87.638 119.483 87.8485 120.112 88.1485C120.74 88.4486 121.261 88.8315 121.675 89.2966C122.088 89.7619 122.38 90.3038 122.551 90.9226C122.722 91.5414 122.752 92.2226 122.64 92.9658C122.532 93.6795 122.325 94.2755 122.019 94.7539C121.713 95.2323 121.337 95.6204 120.892 95.9183C120.446 96.216 119.942 96.4328 119.377 96.568C118.813 96.7036 118.217 96.7847 117.59 96.8117L117.139 98.135L114.865 97.7921L114.896 94.102L115.025 94.0073C116.446 94.1603 117.481 94.106 118.128 93.8441Z" stroke="#7C7B7B" stroke-width="0.0985425" stroke-miterlimit="7.1936"/>
</g>
<mask id="mask4_1_1518" style="mask-type:luminance" maskUnits="userSpaceOnUse" x="-3" y="-1" width="138" height="138">
<path d="M134.897 -0.000427246H-2.10278V137H134.897V-0.000427246Z" fill="white"/>
</mask>
<g mask="url(#mask4_1_1518)">
<mask id="mask5_1_1518" style="mask-type:luminance" maskUnits="userSpaceOnUse" x="14" y="42" width="109" height="86">
<path d="M122.867 42.5257H14.1266V127.879H122.867V42.5257Z" fill="white"/>
</mask>
<g mask="url(#mask5_1_1518)">
<path d="M53.5041 87.6359C53.5041 87.6359 44.3215 94.0588 41.2705 92.1242C38.2195 90.1895 38.8063 90.0188 38.8063 90.0188C38.8063 90.0188 42.9611 88.7965 43.2134 87.9769C43.3098 87.6648 43.3487 86.7542 43.3602 85.7453C43.379 84.1018 43.3252 82.1977 43.3252 82.1977L52.9746 77.1769C52.9746 77.1769 52.9561 77.4042 52.9294 77.782C52.9294 77.7826 52.9294 77.7826 52.9287 77.7833C52.8368 79.0887 52.7174 80.4643 52.872 82.2028C53.0713 84.4452 53.5041 87.6359 53.5041 87.6359Z" fill="#FBC0A4"/>
<path d="M52.9774 77.1769C52.9774 77.1769 52.9589 77.4043 52.9322 77.782C52.9322 77.7827 52.9322 77.7827 52.9315 77.7833C51.2119 84.0439 46.7372 85.2346 45.7109 85.3127C44.6844 85.3902 43.363 85.7455 43.363 85.7455C43.3818 84.1018 43.3279 82.1979 43.3279 82.1979L52.9774 77.1769Z" fill="#F69D7D"/>
<path d="M48.5171 82.9336C51.6713 81.3115 53.6092 77.7404 53.4792 73.9903C53.2948 68.6732 49.868 61.5617 45.3659 61.4275C40.8636 61.2934 39.0536 61.9366 38.7433 67.2479C38.1986 76.5721 38.8099 78.3368 40.0786 80.8138C40.6348 81.8998 41.7271 82.767 42.7351 83.2904C42.8136 83.3312 42.8917 83.3699 42.969 83.4064C43.5415 83.6774 44.0698 83.8303 44.4341 83.8412C44.5416 83.8443 44.6485 83.8457 44.7548 83.845C44.8703 83.8443 44.9851 83.8414 45.0991 83.8362C45.6436 83.8116 46.1694 83.7366 46.674 83.6162C46.7206 83.6051 46.767 83.5936 46.8133 83.5817C47.3623 83.4406 47.8855 83.2453 48.3799 83.0027C48.4259 82.9801 48.4717 82.9571 48.5171 82.9336Z" fill="#FBC0A4"/>
<path d="M54.8571 76.8709C53.996 77.6815 53.2603 77.0617 53.2603 77.0617C52.7445 75.9073 53.4834 73.9924 53.4834 73.9924C53.4836 72.9486 54.3336 71.4508 55.7241 71.9858C55.8567 72.0361 55.9941 72.1056 56.1361 72.1957C57.7685 73.2301 55.9985 75.7955 54.8571 76.8709Z" fill="#FBC0A4"/>
<path d="M55.9012 73.4603C56.0119 74.0972 55.6287 74.642 55.2072 75.1322C54.7678 75.6431 54.6009 75.7336 54.4314 75.8241C54.2618 75.9145 54.1102 75.9161 54.0463 75.735C53.9845 75.5598 54.1234 75.3852 54.2333 75.2355C54.3432 75.0857 54.6857 74.8114 54.5414 74.6944C54.4743 74.6399 54.3258 74.5061 54.354 74.3644C54.3907 74.1797 54.4051 74.0668 54.4402 73.882C54.4857 73.6414 54.5886 73.3829 54.673 73.2538C54.8129 73.04 55.039 72.8387 55.2925 72.8709C55.5578 72.9046 55.8555 73.197 55.9012 73.4603Z" fill="#F69D7D"/>
<path d="M57.0115 63.4068C57.0092 63.4846 57.0043 63.5697 56.9972 63.6632C56.9656 64.0749 56.8875 64.6446 56.712 65.394C56.3043 67.1367 55.7035 70.0718 55.7219 71.9877C54.3314 71.4527 53.4813 72.9506 53.481 73.9944C53.481 73.9944 53.1731 69.9673 51.0581 68.7289C51.0581 68.7289 51.0089 67.8516 51.1006 67.3035C51.1193 67.1908 51.1225 67.026 51.1165 66.8338C51.114 66.7696 51.1111 66.7021 51.107 66.6321C51.0633 65.9003 50.9207 64.9467 50.9207 64.9467L56.9895 62.8002C56.9895 62.8002 57.0277 62.9885 57.0115 63.4068Z" fill="#2D2525"/>
<path d="M57.3786 62.8297C57.4028 63.0355 57.3018 63.2367 57.1218 63.3393C56.9857 63.4169 56.8088 63.5306 56.6129 63.6891C55.4491 64.6302 53.7383 66.4285 51.1048 66.6317C51.1048 66.6317 50.6103 66.6447 49.8317 66.5931C49.3779 66.5635 48.8273 66.5113 48.2228 66.4217C46.3202 66.1401 41.9273 67.4712 39.2398 66.6697C39.2294 66.6662 39.219 66.6635 39.2086 66.6601C38.9477 66.5818 38.6958 66.4984 38.4538 66.4084C36.2186 65.5802 34.823 64.2021 34.9926 61.1219C34.9926 61.1219 35.1191 62.6816 35.9076 63.311C35.8921 63.2729 35.2487 61.6903 35.6953 60.3406H35.6959C35.7889 60.0581 35.9304 59.7861 36.1354 59.5402C37.332 58.1046 37.2662 57.4108 37.2662 57.4108C37.2662 57.4108 37.8813 58.0357 37.8555 59.0467C37.8977 58.7083 38.1479 57.7942 39.5659 56.7006C41.3664 55.312 41.5979 55.2905 42.402 55.401C42.402 55.401 42.1828 56.9515 43.0483 56.9483C43.9136 56.9457 43.7034 56.247 45.141 56.4054C46.2454 56.5272 48.5199 56.2066 50.5095 56.4733C51.1098 56.5543 51.684 56.688 52.192 56.9039C54.1256 57.7243 56.7262 60.2003 57.2877 62.3552C57.3297 62.5157 57.3604 62.6739 57.3786 62.8297Z" fill="#3E3533"/>
<path d="M39.4617 66.3758C39.3881 66.3995 39.2996 66.5106 39.2092 66.6598C38.9675 67.0596 38.7165 67.7329 38.7165 67.7329C38.5727 67.2938 38.4951 66.7868 38.4546 66.4082C38.4188 66.0736 38.411 65.8381 38.411 65.8381C38.411 65.8381 39.7342 66.287 39.4617 66.3758Z" fill="#3E3533"/>
<g opacity="0.15">
<path d="M57.3776 62.8314C57.4017 63.0372 57.3008 63.2384 57.1207 63.3411C56.9847 63.4186 56.8078 63.5323 56.6119 63.6908C55.448 64.6319 53.7373 66.4303 51.1037 66.6334C51.1037 66.6334 50.6093 66.6465 49.8307 66.5948C49.3769 66.5652 48.8263 66.513 48.2218 66.4234C46.3192 66.1419 41.9263 67.4729 39.2388 66.6714C39.2284 66.668 39.218 66.6652 39.2076 66.6618C38.9659 67.0616 38.7147 67.7348 38.7147 67.7348C38.571 67.2957 38.4935 66.7888 38.4528 66.4101C36.2175 65.5819 34.822 64.2038 34.9916 61.1236C34.9916 61.1236 35.1181 62.6833 35.9065 63.3127C35.8911 63.2746 35.2477 61.6921 35.6943 60.3423H35.6949C35.6949 60.3423 35.4946 63.5845 39.5502 64.5721C39.5502 64.5721 38.2954 63.9836 38.0811 63.2163C38.1132 63.2574 39.1507 64.5917 42.1247 65.0032C42.1247 65.0032 37.4166 62.196 37.8465 59.189C37.8465 59.189 38.5286 62.7288 42.896 64.6581C42.864 64.6343 41.8429 63.872 41.8426 63.4457C41.8426 63.4457 42.9592 64.7526 44.6945 64.2657C44.6945 64.2657 42.1462 62.9379 41.4586 61.784C41.4586 61.784 44.5791 64.1573 47.0092 64.1513C49.4386 64.1447 50.461 64.2017 52.8549 63.6425C52.8549 63.6425 48.3599 62.8914 46.9381 61.2332C46.9381 61.2332 48.8003 62.6414 52.4452 62.4092C52.4452 62.4092 45.4387 59.7512 44.2606 56.9626C44.3551 57.1483 45.7091 59.5673 53.0104 61.0597C59.0035 62.2846 54.2014 58.2762 50.5085 56.475C51.1088 56.556 51.683 56.6897 52.191 56.9056C54.1246 57.726 56.7252 60.202 57.2867 62.357C57.3287 62.5174 57.3594 62.6756 57.3776 62.8314Z" fill="black"/>
</g>
<g opacity="0.3">
<path d="M40.8894 60.8324C40.8894 60.8324 39.5798 58.5084 40.2866 56.8223C40.2866 56.8223 39.2059 58.274 40.8894 60.8324Z" fill="black"/>
</g>
<g opacity="0.3">
<path d="M43.2135 61.9861C43.2135 61.9861 45.1685 63.8041 48.9381 63.7851C48.9381 63.7851 45.7314 64.3068 43.2135 61.9861Z" fill="black"/>
</g>
<g opacity="0.3">
<path d="M45.6152 60.8873C45.6152 60.8873 46.1898 62.7561 48.9558 63.3638C48.9558 63.3638 46.3893 63.1167 45.6152 60.8873Z" fill="black"/>
</g>
<g opacity="0.15">
<path d="M57.0104 63.4077C57.008 63.4855 57.0031 63.5706 56.996 63.6642C56.4284 64.0371 55.8023 64.859 54.2242 65.7872C52.2816 66.9294 51.1153 66.8348 51.1153 66.8348C51.1128 66.7705 51.11 66.7031 51.1058 66.6331C53.7394 66.4301 55.4501 64.6317 56.614 63.6905C56.7596 63.5725 56.8946 63.4796 57.0104 63.4077Z" fill="black"/>
</g>
<path d="M50.2645 71.3945C50.2503 71.3789 50.2356 71.3647 50.221 71.3509C49.4085 70.5772 48.4636 70.291 47.4911 70.5415C47.4069 70.5629 47.3178 70.5923 47.2418 70.7075C47.0974 70.9272 47.0696 71.1791 47.066 71.5452C48.2036 71.0363 49.3374 71.118 50.3645 71.7871C50.4036 71.666 50.3926 71.657 50.3595 71.5559C50.3356 71.4831 50.3012 71.4345 50.2645 71.3945Z" fill="#3E3533"/>
<path d="M39.6092 71.24C39.6243 71.2252 39.6397 71.2119 39.6551 71.1987C40.5081 70.47 41.467 70.2352 42.4245 70.5378C42.5075 70.5636 42.5948 70.5978 42.6646 70.7169C42.7969 70.944 42.8112 71.1972 42.795 71.5629C41.6865 70.9935 40.5499 71.0138 39.4882 71.6267C39.4557 71.5037 39.4671 71.4952 39.5058 71.396C39.5333 71.3246 39.5703 71.2779 39.6092 71.24Z" fill="#3E3533"/>
<path d="M47.5247 73.195C47.5358 73.7203 47.8974 74.1387 48.3322 74.1296C48.7672 74.1204 49.1106 73.687 49.0995 73.1617C49.0884 72.6365 48.7269 72.2181 48.2921 72.2272C47.8572 72.2364 47.5136 72.6698 47.5247 73.195Z" fill="#3E3533"/>
<path d="M40.4871 73.1105C40.4982 73.6358 40.8598 74.0542 41.2946 74.0452C41.7296 74.036 42.073 73.6025 42.0619 73.0772C42.0508 72.5521 41.6893 72.1337 41.2545 72.1427C40.8196 72.1519 40.476 72.5854 40.4871 73.1105Z" fill="#3E3533"/>
<path d="M44.4878 73.1692C44.4777 73.1059 44.4818 73.0414 44.5018 72.9804C44.55 72.8337 44.6567 72.6256 44.8003 73.0336C44.966 73.504 44.8914 75.7681 44.6614 76.6052C44.6089 76.7963 44.6989 76.9975 44.8798 77.0791L45.197 77.222C45.2966 77.2669 45.3786 77.3487 45.4104 77.4534C45.4462 77.5712 45.4116 77.7044 45.0823 77.7142C44.4834 77.7322 43.775 77.1347 43.9975 76.5795C44.2157 76.0354 44.7137 74.5899 44.4878 73.1692Z" fill="#F69D7D"/>
<path d="M43.0025 79.9904C43.075 80.0463 43.2834 79.9475 43.5976 79.8219C43.9106 79.6949 44.3429 79.5474 44.8345 79.4877C45.3263 79.4284 45.7829 79.4685 46.1187 79.5171C46.4553 79.564 46.6825 79.6101 46.7385 79.5387C46.7648 79.5047 46.7427 79.4457 46.6708 79.3709C46.5992 79.2961 46.4753 79.2086 46.3017 79.1259C46.1284 79.043 45.9034 78.9687 45.6396 78.9245C45.3763 78.88 45.0736 78.8685 44.759 78.9056C44.4446 78.9445 44.1543 79.0277 43.9105 79.1335C43.6662 79.2392 43.4671 79.3648 43.3203 79.4863C43.1731 79.6078 43.0755 79.7221 43.0251 79.8117C42.9746 79.9013 42.9683 79.9637 43.0025 79.9904Z" fill="#3E3533"/>
<path d="M33.5977 104.764C36.7865 104.804 39.413 102.242 39.4529 99.053C39.4927 95.8642 36.9304 93.237 33.7423 93.1972C30.5529 93.1573 27.9257 95.7196 27.8859 98.9084C27.846 102.097 30.4083 104.724 33.5977 104.764Z" fill="#14B8A6"/>
<path d="M35.9131 126.35L35.9594 125.673C36.093 123.721 37.3247 110.089 39.2531 100.847L39.3922 100.178L28.3105 96.8121L28.1349 97.3714C24.2555 105.169 25.3464 124.603 25.9573 125.502L25.947 126.226L35.9131 126.35Z" fill="#14B8A6"/>
<path d="M30.8728 130.779C33.1467 130.807 35.155 129.293 35.7563 127.097C36.4842 124.437 34.9123 121.68 32.2524 120.951C31.8395 120.838 31.4161 120.779 30.9913 120.773C28.7174 120.745 26.7085 122.259 26.1066 124.456C25.378 127.116 26.9505 129.872 29.6104 130.601C30.0234 130.713 30.4481 130.774 30.8728 130.779Z" fill="#14B8A6"/>
<path d="M32.1832 126.785C34.9374 126.218 36.7171 123.517 36.1503 120.762C35.5836 118.008 32.8819 116.229 30.1277 116.795C27.3729 117.362 25.5939 120.064 26.1606 122.818C26.7272 125.571 29.4284 127.352 32.1832 126.785Z" fill="#14B8A6"/>
<path d="M34.305 134.077C34.5481 132.978 34.7958 131.859 35.0234 130.757C35.9257 126.396 36.0922 123.836 36.0988 123.728L36.1341 123.159L26.1025 122.458L25.6031 123.024C26.2351 125.354 25.3083 142.237 25.3083 142.237L33.9225 142.272C33.9225 142.272 33.5544 137.469 34.305 134.077Z" fill="#14B8A6"/>
<path fill-rule="evenodd" clip-rule="evenodd" d="M30.3087 111.772C30.3087 111.772 30.6184 125.057 30.3087 132.628C30.2361 134.404 29.9402 137.928 29.7018 138.536C29.0346 140.237 29.7676 145.701 34.0312 144.935C35.7232 144.633 37.6851 145.661 40.9143 145.255C46.0246 144.608 51.7994 145.642 54.1312 143.434C58.5086 139.288 62.1433 139.981 64.941 140.113C64.941 140.113 63.649 124.154 64.2614 116.21C64.5478 112.484 64.2203 109.482 64.7218 103.623C65.289 96.9919 64.5889 90.36 64.5889 90.36C64.5889 90.36 57.4975 86.4867 53.712 85.2725L47.1618 88.2062C47.1618 88.2062 45.8849 88.8897 44.6066 88.4141C43.3284 87.9387 41.9912 88.8599 41.9912 88.8599C41.9912 88.8599 34.4956 91.0793 29.7936 94.7547L30.3087 111.772Z" fill="#14B8A6"/>
<path d="M52.8642 82.1064C52.8642 82.1064 52.712 84.1121 49.9298 85.7748C47.2048 87.4037 45.4184 88.5682 45.4184 88.5682L47.1819 91.8831L54.8067 85.6541L52.8642 82.1064Z" fill="#434D56"/>
<path d="M43.3486 86.6053L41.3662 88.9685L43.6337 91.7052L45.6115 88.4755C44.1463 87.7889 43.1994 87.1485 43.3486 86.6053Z" fill="#434D56"/>
<path fill-rule="evenodd" clip-rule="evenodd" d="M30.2103 108.579L30.3069 111.769C30.3069 111.769 30.6173 125.055 30.3069 132.626C30.234 134.402 29.9383 137.925 29.6997 138.534C29.358 139.407 29.384 141.268 30.0655 142.772L29.9119 142.806C29.9119 142.806 28.5412 141.323 29.4845 138.033C30.4279 134.745 30.2344 121.394 30.1377 118.685C30.0741 116.906 29.9549 112.081 30.0176 107.937C30.0033 106.447 30.0366 103.532 30.4448 101.366C30.4448 101.366 30.16 103.793 30.2103 108.579Z" fill="#434D56"/>
<path fill-rule="evenodd" clip-rule="evenodd" d="M50.7094 93.9033L52.5895 93.4654L52.7009 94.739L53.4425 94.4322C53.9177 96.6624 54.547 98.7529 55.349 100.687C55.349 100.687 55.9456 99.0354 56.148 97.0619C56.3827 94.7736 56.5558 93.6177 57.1551 92.6132C58.8524 89.767 60.3854 98.0318 60.3854 98.0318L64.5546 105.947C64.3009 110.346 64.5078 113.011 64.2613 116.211C64.2468 116.399 64.2334 116.592 64.221 116.789C63.5279 118.64 62.6048 123.064 60.8943 124.099C58.6059 125.484 52.7423 126.754 50.5148 120.355C48.2872 113.957 45.633 104.525 43.0263 97.2266L44.0691 96.8468L43.6496 95.7098L46.0099 95.1503C46.4564 95.7773 51.1137 95.6117 50.7094 93.9033Z" fill="#434D56"/>
<path fill-rule="evenodd" clip-rule="evenodd" d="M49.5612 87.0026C49.9336 88.3884 50.016 89.1057 50.2354 90.57C50.2881 90.9207 50.3586 91.2723 50.4395 91.6145C50.8437 93.3228 51.508 94.7895 51.508 94.7895L45.6727 95.7955C45.4338 94.5901 45.0635 93.7889 44.617 93.1619C43.9476 92.2218 43.1067 91.6733 42.2799 90.745C40.9019 89.1975 41.8395 88.6937 41.8395 88.6937C41.5934 88.5509 41.3753 88.1146 41.5555 87.6508C41.639 87.4358 41.7308 87.3196 41.8053 87.2561C41.8918 87.1815 41.955 87.1799 41.955 87.1799C41.5694 86.4478 42.474 86.0005 42.474 86.0005C41.9973 85.3374 42.8243 84.7222 42.8243 84.7222C42.5 84.6343 42.3568 84.2388 42.508 83.8142C42.6591 83.3905 42.706 83.2398 44.2365 83.6644C45.767 84.0889 47.1755 85.6772 47.0518 85.0494C46.9281 84.4208 46.2841 81.019 47.1297 80.7507C47.9753 80.4815 47.8456 81.4365 48.8666 84.6696C49.1782 85.656 49.3977 86.3944 49.5612 87.0026Z" fill="#FBC0A4"/>
<path fill-rule="evenodd" clip-rule="evenodd" d="M42.8858 84.7856C42.8529 84.7864 42.8262 84.7596 42.826 84.7258C42.8261 84.693 42.8532 84.6663 42.886 84.6655C42.886 84.6655 43.2948 84.6661 43.6746 84.9061C43.7026 84.924 43.711 84.961 43.6933 84.9891C43.6757 85.0172 43.6386 85.0256 43.6105 85.0078C43.2613 84.7871 42.8858 84.7856 42.8858 84.7856Z" fill="#F69D7D"/>
<path fill-rule="evenodd" clip-rule="evenodd" d="M42.5196 86.0845C42.4869 86.0768 42.4663 86.0454 42.4731 86.0126C42.4803 85.981 42.5121 85.9599 42.5444 85.9665C42.5444 85.9665 42.746 86.0096 42.9043 86.0779C42.9796 86.1104 43.0449 86.1489 43.0808 86.1894C43.1028 86.2143 43.1006 86.2526 43.0758 86.2748C43.0507 86.2959 43.0127 86.2937 42.9908 86.2688C42.9534 86.2264 42.8735 86.192 42.7926 86.1627C42.6588 86.1135 42.5196 86.0845 42.5196 86.0845Z" fill="#F69D7D"/>
<path fill-rule="evenodd" clip-rule="evenodd" d="M41.988 87.2651C41.957 87.2536 41.9412 87.2191 41.9526 87.1876C41.9642 87.1569 41.9987 87.1407 42.0297 87.1521C42.0297 87.1521 42.1594 87.2009 42.2633 87.2657C42.3131 87.2969 42.3568 87.3323 42.3823 87.3673C42.402 87.3946 42.396 87.432 42.3691 87.4514C42.3424 87.4708 42.3047 87.4646 42.2854 87.4382C42.2603 87.404 42.2094 87.3713 42.1588 87.3433C42.0744 87.2969 41.988 87.2651 41.988 87.2651Z" fill="#F69D7D"/>
<path fill-rule="evenodd" clip-rule="evenodd" d="M46.8112 83.5845C46.8965 84.2461 47.0067 84.8228 47.0508 85.0473C47.1604 85.6036 46.0676 84.4203 44.7526 83.8474C44.5833 83.7744 44.4101 83.7101 44.2355 83.6622C43.5856 83.4817 43.2033 83.4048 42.9669 83.4095C42.8896 83.3727 42.8115 83.3342 42.7329 83.2934C42.9203 83.2259 43.2441 83.1867 43.7664 83.3358C44.2532 83.4747 44.6319 83.5994 45.0969 83.8388C45.5544 84.075 46.0954 84.4218 46.905 85.0033C46.905 85.0033 46.7689 84.3865 46.6718 83.6191C46.618 83.1937 46.5761 82.7213 46.5761 82.2827C46.5761 81.0522 46.698 80.6685 47.2039 80.5657C47.7097 80.4621 47.9166 80.634 48.296 82.0943C48.3575 82.3305 48.4325 82.6193 48.5151 82.9363C48.9423 84.5788 49.5722 86.995 49.5722 86.995L49.5602 87.0005C49.3967 86.3915 49.1772 85.6539 48.8656 84.6675C48.6633 84.0263 48.5061 83.4755 48.3777 83.0054C47.8577 81.104 47.8068 80.5327 47.1288 80.7485C46.5847 80.9212 46.6573 82.391 46.8112 83.5845Z" fill="#F69D7D"/>
<path fill-rule="evenodd" clip-rule="evenodd" d="M47.6209 80.8017C47.5267 80.7845 47.25 80.7547 47.2439 81.0011C47.2366 81.2906 47.3231 82.2739 48.0895 81.9404C47.9206 81.3212 47.8 80.9595 47.6209 80.8017Z" fill="#FDE6DB"/>
<path d="M60.9371 100.463C57.7926 99.4643 55.9626 96.3586 56.8574 93.5399C57.7522 90.7212 61.039 89.2398 64.1829 90.2378C67.328 91.2362 69.1586 94.3421 68.2639 97.1608C67.3691 99.9795 64.0822 101.461 60.9371 100.463Z" fill="#14B8A6"/>
<path d="M52.3441 118.703L52.4969 118.092C52.9376 116.331 55.8186 103.542 56.6308 94.7846L56.766 93.8763L68.4647 95.1756L68.4734 95.7246C68.3643 103.435 62.6095 120.433 62.3736 121.183L62.1717 121.823L52.3441 118.703Z" fill="#14B8A6"/>
<path d="M55.9946 124.238C53.7522 123.527 52.2226 121.544 52.2751 119.416C52.3392 116.839 54.6909 114.923 57.5176 115.144C57.9563 115.178 58.3897 115.263 58.8086 115.396C61.051 116.108 62.5812 118.091 62.5292 120.219C62.4658 122.796 60.1136 124.712 57.2869 124.491C56.8483 124.456 56.4134 124.371 55.9946 124.238Z" fill="#14B8A6"/>
<path d="M52.6808 96.3611L52.5006 93.9833L44.3417 96.0557L45.3787 98.9035L52.6808 96.3611Z" fill="#434D56"/>
<path d="M56.2047 112.662C59.465 112.43 62.3062 114.893 62.5384 118.154C62.7706 121.414 60.3071 124.255 57.0469 124.487C53.7859 124.719 50.9454 122.256 50.7132 118.996C50.4811 115.736 52.9437 112.894 56.2047 112.662Z" fill="#14B8A6"/>
<path d="M56.2831 103.831C56.9009 104.985 57.5301 106.159 58.1314 107.321C60.5129 111.917 61.5044 114.73 61.5456 114.848L61.7641 115.473L50.9708 120.34L50.7865 119.671C50.5714 118.889 43.6489 97.5301 43.6489 97.5301L53.2773 94.7812C53.2773 94.7812 54.3762 100.272 56.2831 103.831Z" fill="#14B8A6"/>
<path fill-rule="evenodd" clip-rule="evenodd" d="M55.5899 102.377C55.5899 102.377 57.8894 107.211 59.5878 112.072C61.2864 116.932 60.6331 117.977 60.6331 117.977C60.6331 117.977 61.6 116.513 59.7446 111.628C57.8894 106.741 55.6683 101.593 55.6683 101.593C55.6683 101.593 55.3024 101.645 55.5899 102.377Z" fill="#434D56"/>
<path d="M104.842 156.415C103.787 168.692 102.732 180.625 102.498 183.258C102.47 183.571 102.226 183.818 101.914 183.848C98.8545 184.152 81.5214 185.82 74.9264 185.136C74.7144 185.115 74.5562 184.933 74.56 184.72C74.6189 181.936 74.9093 164.385 73.0568 158.366C72.1241 155.336 71.5576 152.535 71.3915 149.782C71.377 149.556 71.3653 149.33 71.3574 149.103C71.2488 146.144 71.6112 143.223 72.4904 140.113C74.2527 133.882 75.7636 127.021 75.7636 127.021L88.7062 127.242L88.7272 127.244L101.506 127.462C101.506 127.462 106.038 142.505 104.842 156.415Z" fill="#6B7277"/>
<path fill-rule="evenodd" clip-rule="evenodd" d="M99.4337 73.4465C99.4337 73.4465 98.0965 72.6001 97.2875 72.4651C96.4776 72.3302 95.0792 72.5142 93.6196 72.7595C92.1592 73.0049 91.5095 72.5265 90.724 72.3179C89.9392 72.1094 89.9141 71.7781 89.9753 71.5941C90.0373 71.4101 90.7122 70.6986 93.5827 71.1279C93.5827 71.1279 91.3133 69.9748 90.5152 69.8644C89.718 69.754 88.2701 69.8399 87.5835 69.8767C86.8968 69.9135 86.3075 69.6069 86.59 68.8582C86.59 68.8582 85.7802 69.0058 85.6695 68.5145C85.5597 68.0241 85.7802 67.6317 86.3813 67.4599C86.3813 67.4599 86.1977 66.9082 87.093 66.5645C87.9884 66.2208 88.4914 66.0489 88.4914 66.0489C88.4914 66.0489 88.2827 65.6197 89.5343 65.2273C90.7852 64.8349 91.6319 64.4787 93.239 65.0554C94.8462 65.6322 95.7415 66.0983 96.6738 66.785C97.6061 67.4724 97.6798 67.5093 99.0413 67.9017C100.403 68.294 100.992 68.5145 100.992 68.5145C100.992 68.5145 99.9367 72.7105 99.4337 73.4465Z" fill="#FBC0A4"/>
<path fill-rule="evenodd" clip-rule="evenodd" d="M90.2725 72.1498C90.3101 71.981 90.4129 71.7451 90.6946 71.7339C91.1341 71.7163 91.5955 71.9142 91.6575 72.112C91.6912 72.2221 91.6151 72.4328 91.5414 72.5981C91.2581 72.5014 90.9991 72.3948 90.7229 72.3215C90.5298 72.2704 90.3831 72.2117 90.2725 72.1498Z" fill="#FDE6DB"/>
<path fill-rule="evenodd" clip-rule="evenodd" d="M93.2531 69.1226C93.2327 69.0959 93.2178 69.0653 93.1974 69.0386C93.1966 69.0378 91.3031 68.2954 90.4587 68.2719C89.7336 68.2515 87.8063 68.5866 86.929 68.7474C86.736 68.7828 86.641 68.8134 86.641 68.8134C86.6363 68.8173 86.6324 68.822 86.6292 68.8275C86.619 68.84 86.6151 68.8573 86.619 68.873C86.623 68.8895 86.6339 68.9028 86.6496 68.9091C86.6614 68.9169 86.674 68.9232 86.6873 68.9248C86.6897 68.9256 89.5688 68.432 90.4532 68.4555C91.041 68.4712 92.3413 68.873 93.0962 69.1288C93.1127 69.1343 93.1292 69.1398 93.1464 69.1453C93.1496 69.1469 93.1527 69.15 93.1566 69.1492C93.2061 69.139 93.2045 69.1328 93.2531 69.1226Z" fill="#F69D7D"/>
<path fill-rule="evenodd" clip-rule="evenodd" d="M94.1826 67.8961C94.1567 67.8765 94.1535 67.8349 94.1276 67.8153C94.1245 67.8137 91.9837 67.0431 91.1433 66.9089C91.0052 66.8869 90.6725 66.832 88.6926 67.0721C87.6599 67.1969 86.42 67.3939 86.4184 67.3955C86.4129 67.4002 86.4082 67.4049 86.4043 67.4104C86.3941 67.4221 86.3894 67.4386 86.3925 67.4543C86.3965 67.47 86.4067 67.4833 86.4208 67.4904C86.4334 67.4998 86.4459 67.5069 86.46 67.5092C86.4616 67.5092 87.9675 67.3154 89.391 67.1906C90.9267 67.0557 91.075 67.1169 91.13 67.1263C91.1715 67.1326 91.5772 67.1836 93.3829 67.7156C93.5948 67.7784 93.9008 67.8702 94.079 67.9244C94.0829 67.9259 94.086 67.9291 94.09 67.9283C94.137 67.9149 94.1355 67.9094 94.1826 67.8961Z" fill="#F69D7D"/>
<path fill-rule="evenodd" clip-rule="evenodd" d="M94.756 66.7455C94.7317 66.7235 94.727 66.685 94.7026 66.6631C94.6995 66.6599 92.6655 65.865 91.7277 65.7732C91.7065 65.7708 90.9893 65.6649 88.854 65.9301C88.6422 65.9568 88.5582 65.9709 88.5582 65.9717C88.5535 65.9749 88.5504 65.9796 88.5464 65.9843C88.5354 65.9968 88.5299 66.0149 88.5331 66.0314C88.5362 66.0486 88.5472 66.0635 88.5621 66.0714C88.5715 66.0777 88.5817 66.0839 88.5927 66.0863C88.6092 66.0902 90.9124 65.8407 91.8909 66.0007C91.9412 66.0094 92.6568 66.1106 94.4311 66.6968C94.6555 66.7714 94.6548 66.7768 94.6618 66.7745C94.6932 66.7659 94.7246 66.7541 94.756 66.7455Z" fill="#F69D7D"/>
<path d="M104.669 92.3361C102.581 90.5816 99.4554 90.8529 97.7008 92.9404C95.9462 95.0279 96.2172 98.1544 98.3043 99.9086C100.392 101.664 103.519 101.393 105.273 99.305C107.028 97.2175 106.757 94.0911 104.669 92.3361Z" fill="#434D56"/>
<path d="M114.835 76.8068L114.437 77.2296C113.291 78.4487 103.589 92.5181 98.8035 91.8653L98.349 92.2324L103.855 100.465L105.415 102.386C111.205 98.3609 119.643 84.5544 120.11 84.0006L120.575 82.7369L114.835 76.8068Z" fill="#434D56"/>
<path d="M119.202 78.1758C117.713 76.9246 115.564 76.8376 113.976 77.9644C112.053 79.3296 111.599 82.0049 112.963 83.9284C113.175 84.2269 113.423 84.4958 113.701 84.7295C115.19 85.9807 117.339 86.0681 118.928 84.9413C120.852 83.5764 121.305 80.9012 119.941 78.9776C119.728 78.6795 119.48 78.4095 119.202 78.1758Z" fill="#434D56"/>
<path d="M97.8363 74.4222L95.8845 73.8617L99.0206 67.4153L101.217 68.7714L97.8363 74.4222Z" fill="#14B8A6"/>
<path d="M110.822 80.1782C110.066 82.857 111.63 85.6513 114.309 86.4077C116.988 87.1639 119.782 85.5998 120.538 82.921C121.295 80.2416 119.731 77.4477 117.052 76.6915C114.374 75.9355 111.579 77.4988 110.822 80.1782Z" fill="#434D56"/>
<path d="M103.444 78.7184C104.299 79.4326 105.17 80.16 106.035 80.8618C109.457 83.641 111.631 84.9532 111.722 85.0079L112.206 85.298L117.391 76.8005L116.865 76.5312C116.25 76.217 100.369 67.0948 100.369 67.0948L96.415 74.65C96.415 74.65 100.804 76.5139 103.444 78.7184Z" fill="#434D56"/>
<path fill-rule="evenodd" clip-rule="evenodd" d="M109.502 83.5266C109.502 83.5266 110.382 84.8205 112.739 85.5754C112.739 85.5754 110.569 84.4729 109.502 83.5266Z" fill="#394249"/>
<path d="M67.9449 98.2327C68.9543 99.3978 70.2059 100.029 72.2397 100.414C73.4961 100.653 75.051 100.798 77.031 100.918C82.2156 101.232 92.6273 99.4328 92.6273 99.4328L92.6283 99.434C92.6705 99.4656 93.6658 100.21 95.1025 100.632C96.9244 101.168 97.5921 100.383 99.798 97.7735C102.158 94.981 102.565 94.3861 101.879 92.7492C101.407 91.624 100.889 90.6075 100.445 89.9778C99.3194 88.3818 99.0969 87.5519 98.8798 86.409C98.8798 86.409 102.136 85.1246 101.965 82.2969C101.793 79.4692 100.465 77.3698 100.38 73.6428C100.294 69.916 97.8095 64.9889 95.1528 63.3181C92.4972 61.6471 87.7845 59.1204 83.0294 61.6905C78.2744 64.2606 76.7746 65.6317 76.175 72.9579C75.5756 80.283 73.4328 81.7396 71.1192 83.6247C68.8067 85.5099 68.7635 85.6807 68.8067 86.6234C68.8488 87.5659 67.6066 88.7661 68.0352 89.965C68.4636 91.164 68.7553 91.9789 67.9449 92.8782C67.1359 93.7775 66.3128 96.3487 67.9449 98.2327Z" fill="#262423"/>
<g opacity="0.2">
<path d="M72.2385 100.412C73.4949 100.651 75.0498 100.796 77.0297 100.916C82.2144 101.231 92.626 99.431 92.626 99.431L92.6271 99.432C92.6692 99.4637 93.6645 100.208 95.1012 100.63C97.5918 95.6548 91.7882 90.5683 94.8928 86.4072C97.4096 83.0338 88.4108 76.6455 88.4108 76.6455C88.4108 76.6455 80.3726 75.0144 80.2989 83.0701C80.2391 89.4783 74.5593 97.4286 72.2385 100.412Z" fill="black"/>
</g>
<path d="M82.0385 91.2808C82.0385 91.2808 91.0958 97.6162 94.1051 95.7078C97.1145 93.7997 96.5579 93.3221 96.5579 93.3221C96.5579 93.3221 92.4377 92.4256 92.1888 91.6172C92.0937 91.3093 92.0553 90.4114 92.0439 89.4162C92.0255 87.795 92.0786 85.9169 92.0786 85.9169L82.5608 80.9646C82.5608 80.9646 82.5791 81.1889 82.6054 81.5614C82.6054 81.5621 82.6054 81.5621 82.606 81.5627C82.6968 82.8504 82.8144 84.2072 82.6621 85.9218C82.4654 88.1336 82.0385 91.2808 82.0385 91.2808Z" fill="#FBC0A4"/>
<path d="M82.5621 80.9646C82.5621 80.9646 82.5803 81.1889 82.6066 81.5616C82.6066 81.5621 82.6066 81.5621 82.6072 81.5627C84.3035 87.7378 88.9243 88.6973 89.9366 88.7743C90.9491 88.8508 92.0452 89.4162 92.0452 89.4162C92.0268 87.795 92.0799 85.9171 92.0799 85.9171L82.5621 80.9646Z" fill="#F69D7D"/>
<path d="M81.5006 77.8405C81.6824 72.5959 85.6259 65.5685 90.0668 65.4361C94.5075 65.3038 96.2927 65.9382 96.5988 71.177C97.1362 80.3738 96.5332 82.1146 95.2819 84.5577C94.3734 86.3314 92.0157 87.5132 90.9857 87.5438C85.5981 87.7044 81.3235 82.9473 81.5006 77.8405Z" fill="#FBC0A4"/>
<path d="M80.221 80.6507C81.1092 81.4869 81.868 80.8476 81.868 80.8476C82.4002 79.657 81.638 77.6817 81.638 77.6817C81.6377 76.605 80.7609 75.06 79.3267 75.6118C79.1899 75.6635 79.0481 75.7354 78.9018 75.8283C77.2179 76.8953 79.0437 79.5416 80.221 80.6507Z" fill="#FBC0A4"/>
<path d="M79.1419 77.1298C79.0278 77.7869 79.4229 78.3486 79.8579 78.8543C80.3111 79.3813 80.4832 79.4747 80.658 79.568C80.8329 79.6613 80.9893 79.6631 81.0552 79.4761C81.119 79.2954 80.9757 79.1154 80.8623 78.9608C80.749 78.8064 80.3957 78.5234 80.5445 78.4027C80.6137 78.3466 80.7669 78.2085 80.7379 78.0624C80.7 77.8719 80.6851 77.7555 80.649 77.5647C80.602 77.3166 80.496 77.0499 80.4088 76.9168C80.2645 76.6962 80.0312 76.4886 79.7698 76.5218C79.4962 76.5567 79.1891 76.8582 79.1419 77.1298Z" fill="#F69D7D"/>
<path d="M89.1656 83.9225C89.2286 83.9711 89.4098 83.8851 89.6828 83.776C89.9548 83.6656 90.3306 83.5374 90.7578 83.4856C91.1852 83.434 91.5821 83.4689 91.874 83.5111C92.1664 83.5519 92.3639 83.592 92.4126 83.5299C92.4354 83.5004 92.4162 83.449 92.3538 83.3841C92.2916 83.3191 92.1839 83.243 92.033 83.1711C91.8824 83.099 91.6868 83.0345 91.4575 82.9961C91.2287 82.9574 90.9656 82.9474 90.6922 82.9796C90.419 83.0135 90.1667 83.0858 89.9548 83.1777C89.7424 83.2696 89.5694 83.3787 89.4418 83.4843C89.3139 83.5899 89.229 83.6893 89.1853 83.7671C89.1414 83.845 89.1359 83.8993 89.1656 83.9225Z" fill="#3E3533"/>
<path d="M85.3023 75.5066C85.3137 75.4891 85.3256 75.473 85.3376 75.4571C86.0026 74.5727 86.8754 74.1408 87.8621 74.2268C87.9475 74.234 88.039 74.2482 88.1317 74.3478C88.3078 74.5381 88.3757 74.7788 88.4385 75.1343C87.2492 74.8238 86.1595 75.0871 85.2687 75.9049C85.2111 75.7934 85.2203 75.7828 85.2361 75.679C85.2474 75.6043 85.273 75.5514 85.3023 75.5066Z" fill="#3E3533"/>
<path d="M95.6689 75.4136C95.6573 75.3963 95.645 75.3804 95.6329 75.3647C94.9555 74.4896 94.0766 74.0704 93.0911 74.1704C93.0058 74.1786 92.9146 74.1942 92.8232 74.2951C92.6498 74.4878 92.5854 74.7296 92.5275 75.086C93.7124 74.7586 94.8058 75.0064 95.7081 75.8113C95.7642 75.6992 95.7548 75.6887 95.7375 75.5851C95.7252 75.5106 95.6988 75.4581 95.6689 75.4136Z" fill="#3E3533"/>
<path d="M87.9358 77.0419C87.9249 77.5602 87.5682 77.9728 87.1394 77.9638C86.7103 77.9547 86.3716 77.5273 86.3825 77.0092C86.3933 76.4911 86.75 76.0783 87.1789 76.0875C87.608 76.0964 87.9467 76.5239 87.9358 77.0419Z" fill="#3E3533"/>
<path d="M94.8808 76.9615C94.8699 77.4797 94.5132 77.8924 94.0844 77.8833C93.6553 77.8743 93.3166 77.4469 93.3275 76.9288C93.3382 76.4107 93.695 75.9979 94.1239 76.0071C94.5528 76.016 94.8917 76.4434 94.8808 76.9615Z" fill="#3E3533"/>
<path d="M90.9353 77.016C90.9452 76.9534 90.9412 76.8898 90.9216 76.8298C90.874 76.6851 90.7685 76.4797 90.627 76.8822C90.4636 77.3463 90.5373 79.5794 90.764 80.4051C90.8158 80.5936 90.727 80.7921 90.5487 80.8724L90.2359 81.0135C90.1376 81.0578 90.0565 81.1384 90.0253 81.2415C89.99 81.3578 90.0239 81.4892 90.3489 81.499C90.9397 81.5166 91.6385 80.9272 91.4189 80.3798C91.2036 79.8431 90.7124 78.4173 90.9353 77.016Z" fill="#F69D7D"/>
<path d="M89.1428 68.2811C89.1428 68.2811 93.5124 67.6018 94.5654 69.6057C95.6182 71.6095 96.6371 74.339 97.1125 79.0705C97.1125 79.0705 98.3075 69.6396 96.793 67.3303C95.2786 65.0208 90.6849 63.2206 87.157 65.6321C83.6293 68.0433 81.0447 74.2851 81.4925 77.6209C81.4925 77.6209 81.5801 77.0784 81.9288 76.7588C82.2775 76.4391 84.2099 75.0589 85.5175 72.8067C86.8252 70.5547 87.4505 68.3918 89.1428 68.2811Z" fill="#262423"/>
<g opacity="0.2">
<path d="M95.8799 87.0977C95.8799 87.0977 97.609 87.134 98.8783 86.4044C98.8783 86.4044 97.5603 87.5471 95.8799 87.0977Z" fill="black"/>
</g>
<g opacity="0.2">
<path d="M89.3393 68.2566C89.3393 68.2566 88.0451 67.2976 87.4888 66.5465C87.4888 66.5465 87.9634 67.5601 89.3393 68.2566Z" fill="black"/>
</g>
<g opacity="0.2">
<path d="M83.3217 62.6816C83.3217 62.6816 77.7889 65.1351 77.2882 69.9669C77.2882 69.9669 77.6386 66.0364 83.3217 62.6816Z" fill="black"/>
</g>
<g opacity="0.2">
<path d="M76.2627 76.4516C76.2633 76.3414 76.1052 76.3229 76.0824 76.4306C75.8881 77.35 75.7551 79.0418 75.2254 80.1509C74.4243 81.8282 72.801 84.1726 71.4241 84.9487C70.0471 85.7247 68.7982 87.1136 71.452 85.4863C73.9335 83.9646 76.24 80.2843 76.2627 76.4516Z" fill="black"/>
</g>
<g opacity="0.2">
<path d="M68.6985 92.0474C68.6985 92.0474 75.2327 89.7337 76.0338 85.195C76.0338 85.195 75.1326 89.0182 68.6985 92.0474Z" fill="black"/>
</g>
<g opacity="0.2">
<path d="M90.5377 67.4036C90.5377 67.4036 94.1949 66.9819 95.4267 69.6274C96.6587 72.2732 97.7392 78.0181 97.3758 80.5618C97.3758 80.5618 98.2938 75.6056 95.6249 69.4954C94.2393 66.3227 90.5377 67.4036 90.5377 67.4036Z" fill="black"/>
</g>
<g opacity="0.2">
<path d="M100.447 84.3546C100.369 84.4666 102.065 83.5915 100.975 79.0676C100.975 79.0676 101.57 82.736 100.447 84.3546Z" fill="black"/>
</g>
<g opacity="0.2">
<path d="M86.6227 69.0628C86.6227 69.0628 83.9639 74.7467 81.5447 75.4935C81.5447 75.4935 83.6914 74.5495 86.6227 69.0628Z" fill="black"/>
</g>
<path d="M102.501 103.85L100.4 129.059L100.266 135.042C100.266 135.042 96.9828 135.417 93.5931 135.597C93.4623 135.603 93.3314 135.61 93.2006 135.616C90.4009 135.751 87.6143 135.738 86.6252 135.255C84.3921 134.165 81.7585 103.345 81.7585 103.345L80.1899 91.5383C80.1899 91.5383 81.0763 89.7481 82.181 88.4751C82.2289 88.4197 82.3102 88.4085 82.3721 88.4477C83.0578 88.8812 86.847 91.2711 88.2475 92.0433C89.7899 92.8949 89.5506 93.1868 89.684 94.0646C89.7821 94.7187 90.2649 95.0916 90.5042 95.2394C90.5867 95.2904 90.6404 95.314 90.6404 95.314C90.6404 95.314 90.7463 95.242 90.868 95.089C91.0839 94.8154 91.3481 94.2831 91.1479 93.4354C91.1465 93.4326 91.1465 93.4288 91.1453 93.4261C91.1362 93.383 91.1257 93.3398 91.1166 93.2966C90.8575 91.9988 92.002 90.4926 92.0477 89.5696C92.0477 89.5696 92.1443 89.4085 92.7271 89.5987C92.8718 89.646 93.0293 89.7414 93.1903 89.8603C93.1903 89.8603 93.1903 89.8617 93.1915 89.8631C93.9843 90.4452 94.6828 91.4323 94.6828 91.4323L102.501 103.85Z" fill="#14B8A6"/>
<g opacity="0.15">
<path d="M80.1864 91.5394C80.1864 91.5394 83.9008 96.1879 86.1689 97.7279C86.4143 97.8945 86.7402 97.8706 86.9576 97.6685C87.4936 97.1704 88.5133 95.9542 89.5719 93.259C89.5719 93.259 88.9209 96.9308 86.9804 98.4134C86.7582 98.5834 86.4467 98.5762 86.2246 98.406C85.1651 97.5938 82.0194 95 80.1864 91.5394Z" fill="black"/>
</g>
<g opacity="0.15">
<path d="M93.7745 96.3893C93.1923 96.5423 91.8078 94.7854 91.1419 93.4341C91.1405 93.4314 91.1405 93.4275 91.1393 93.4248C91.1393 93.4248 93.1243 96.1891 93.7248 96.1224C94.2547 96.0635 95.0712 93.3516 94.7088 91.4821C95.0516 93.0114 94.8302 96.1119 93.7745 96.3893Z" fill="black"/>
</g>
<g opacity="0.15">
<path d="M94.1468 123.815C93.715 128.237 93.3056 132.437 93.5869 135.597C93.4561 135.603 93.3253 135.61 93.1944 135.616C92.9131 132.42 93.3239 128.209 93.7557 123.777C94.2933 118.265 94.8494 112.566 94.1508 108.176C93.1145 101.653 91.2464 96.9456 90.498 95.2396C90.5805 95.2906 90.6342 95.3142 90.6342 95.3142C90.6342 95.3142 90.7401 95.2422 90.8618 95.0892C91.6219 96.8278 93.4966 101.565 94.538 108.114C95.2445 112.553 94.6859 118.278 94.1468 123.815Z" fill="black"/>
</g>
<g opacity="0.03">
<path d="M86.5909 115.963C86.5909 115.963 89.7799 116.296 94.478 113.856C94.478 113.856 94.4636 117.903 87.6997 118.846C80.9358 119.788 86.5909 115.963 86.5909 115.963Z" fill="black"/>
</g>
<g opacity="0.03">
<path d="M95.2315 114.419L94.758 116.681C94.758 116.681 95.2946 117.401 97.9559 117.623C100.617 117.845 100.174 114.629 100.174 114.629C100.174 114.629 98.3842 114.774 95.8897 114.026C95.598 113.938 95.2939 114.121 95.2315 114.419Z" fill="black"/>
</g>
<path d="M94.4563 91.1377C94.4234 91.0199 94.6387 90.941 94.7504 90.9907C95.4934 91.3213 97.3132 91.6839 98.5478 91.9322C100.091 92.2427 102.148 92.5374 103.034 93.3282C103.095 93.3825 103.127 93.4621 103.127 93.5437L105.655 99.2111C105.655 99.2111 105.97 110.721 105.567 121.66C105.359 127.294 107.367 148.221 106.901 149.238C106.436 150.255 99.5294 151.497 99.1415 150.721C98.7535 149.945 97.6672 127.83 98.5207 120.458C99.3742 113.087 100.597 108.73 96.0188 96.1637C96.0188 96.1637 94.8442 92.5248 94.4563 91.1377Z" fill="#434D56"/>
<path d="M69.4072 148.526C69.4409 148.587 69.6152 148.665 69.9026 148.754C72.624 149.581 85.5141 151.388 86.063 150.961C86.6546 150.501 88.6391 132.581 88.7569 125.661V125.612C88.7599 125.455 88.7629 125.302 88.7629 125.157C88.7844 118.651 88.9388 111.822 86.4008 106.215C84.08 101.086 80.9931 92.4738 80.484 91.0442C80.4474 90.9418 80.325 90.8989 80.2318 90.9586C79.7242 91.2874 78.2442 92.2215 77.1372 92.7015C75.8285 93.2702 71.2313 94.8802 69.5801 96.6873C69.4684 96.8096 69.4302 96.9794 69.473 97.1369L74.2324 114.886V114.887C74.237 114.924 74.2996 115.511 74.3792 116.459C74.4709 117.557 74.584 119.139 74.6529 120.917C74.662 121.136 74.6696 121.358 74.6757 121.581C74.7737 124.742 74.711 128.387 74.1391 131.008C74.0825 131.272 74.0198 131.525 73.9511 131.766C72.4161 137.197 69.0526 147.876 69.4072 148.526Z" fill="#434D56"/>
<g opacity="0.15">
<path d="M88.7549 125.659C88.7523 126.126 88.7432 126.658 88.7261 127.242C88.5063 134.836 87.109 151.299 86.5479 151.736C86.0493 152.124 75.3949 150.673 71.3904 149.78C71.3759 149.554 71.3642 149.328 71.3563 149.101C75.6566 149.996 85.5797 151.332 86.0598 150.959C86.612 150.53 88.3703 134.97 88.7051 127.24C88.7301 126.667 88.747 126.136 88.7549 125.659Z" fill="black"/>
</g>
<g opacity="0.15">
<path d="M79.818 91.2208L79.3326 93.5745L79.2103 94.1627C79.1676 94.3607 79.1288 94.5493 79.1262 94.745C79.1163 95.1337 79.2163 95.523 79.4098 95.8574C79.5062 96.0246 79.6257 96.1783 79.7634 96.3129C79.8324 96.3803 79.9064 96.4413 79.9829 96.5004L80.2239 96.6797L80.7059 97.0383L80.7661 97.0831C80.7859 97.0978 80.8054 97.1115 80.832 97.1354C80.8805 97.1792 80.9201 97.2358 80.9431 97.2988C80.9878 97.4255 80.9674 97.5696 80.89 97.6796C80.8519 97.7351 80.7973 97.7797 80.7371 97.8092C80.7085 97.8257 80.6725 97.8342 80.6456 97.8429L80.5727 97.8614L80.2817 97.9355L79.6996 98.084L79.1161 98.2267C79.0191 98.2515 78.9214 98.2739 78.8249 98.3008L78.68 98.3399C78.6568 98.3465 78.6291 98.3528 78.6098 98.3595C78.5943 98.3658 78.5789 98.3714 78.566 98.3813C78.5131 98.4199 78.4893 98.4809 78.4814 98.534C78.4708 98.5868 78.4711 98.6407 78.4998 98.6874L78.814 99.1904C79.0261 99.5312 79.2347 99.8741 79.4416 100.218C79.8563 100.905 80.2567 101.601 80.6538 102.298C81.4398 103.697 82.1964 105.114 82.8883 106.564C83.5821 108.012 84.2269 109.485 84.7822 110.995C85.3422 112.506 85.765 114.054 86.2147 115.591C86.6599 117.13 87.0906 118.674 87.5154 120.218C87.9447 121.762 88.3567 123.31 88.7712 124.858L85.9879 115.658C85.5155 114.128 85.0608 112.591 84.5 111.1C83.9369 109.607 83.2842 108.147 82.5822 106.712C81.8767 105.279 81.1334 103.863 80.3486 102.47C79.9534 101.775 79.5546 101.082 79.142 100.398C78.936 100.055 78.7283 99.7139 78.5175 99.3746L78.1958 98.8583C78.1225 98.7318 78.1044 98.5692 78.1531 98.4313C78.2024 98.2918 78.3215 98.1899 78.4478 98.1401C78.4797 98.1277 78.5115 98.1167 78.5444 98.1097L78.62 98.0931L78.7668 98.0613C78.865 98.0411 78.962 98.0163 79.0595 97.9938L79.6436 97.8532L80.2291 97.7184L80.5218 97.6509L80.5948 97.634C80.6153 97.6274 80.6293 97.6259 80.6444 97.6172C80.6741 97.6035 80.7007 97.5839 80.7199 97.557C80.7594 97.504 80.772 97.4292 80.7515 97.3657C80.7407 97.3343 80.722 97.3061 80.6972 97.2824C80.6872 97.272 80.6666 97.2558 80.6464 97.2404L80.587 97.1941L80.1134 96.8246L79.8767 96.6399C79.7961 96.5746 79.7171 96.5063 79.6444 96.4321C79.4991 96.2833 79.3745 96.1148 79.2751 95.933C79.0757 95.5696 78.9795 95.1519 78.9993 94.7404C79.0069 94.5349 79.0527 94.3296 79.102 94.1382L79.2444 93.5546L79.818 91.2208Z" fill="black"/>
</g>
<path d="M99.1239 102.451C99.1002 101.409 99.1505 100.368 99.271 99.333C99.2893 99.1763 99.308 99.0198 99.3275 98.8632C99.3726 98.4988 99.4193 98.1346 99.4697 97.7707L99.545 97.2333C99.5519 97.1836 99.5321 97.1384 99.5035 97.0984C99.4772 97.0568 99.4346 97.0147 99.3758 97.0022C99.3614 96.9986 99.3465 96.9996 99.3311 97.0001C99.3125 97.0019 99.287 97.0068 99.2652 97.0098L99.1294 97.0313C99.0387 97.0445 98.9488 97.0622 98.8586 97.0777L98.3177 97.1755L97.7758 97.2682L97.505 97.3144L97.4371 97.326C97.4114 97.3289 97.3782 97.3351 97.3481 97.3321C97.2868 97.3298 97.2246 97.3129 97.1721 97.2806C97.0663 97.2175 96.9957 97.1046 96.986 96.982C96.9816 96.9208 96.9938 96.8588 97.0179 96.8041C97.0313 96.7742 97.0426 96.7555 97.0536 96.7358L97.0873 96.6759L97.3568 96.1968L97.4914 95.9572C97.5334 95.8793 97.5725 95.8009 97.6052 95.7188C97.6702 95.5551 97.7128 95.3821 97.7312 95.2064C97.7685 94.8548 97.707 94.4922 97.5542 94.1709C97.4792 94.0084 97.3765 93.8651 97.2672 93.7155L96.9458 93.2694L95.6642 91.4825L97.0123 93.2198L97.3486 93.6548C97.461 93.7965 97.5757 93.9509 97.6585 94.1199C97.8283 94.4566 97.9033 94.8414 97.8719 95.2194C97.8566 95.4085 97.815 95.5957 97.7488 95.774C97.7158 95.8633 97.6754 95.9497 97.6321 96.0342L97.503 96.2768L97.2445 96.762L97.2122 96.8227C97.2011 96.8431 97.1899 96.8644 97.1855 96.8767C97.1734 96.9058 97.1683 96.9364 97.171 96.9666C97.1774 97.0273 97.2159 97.0851 97.2687 97.1147C97.2947 97.1302 97.3244 97.1366 97.3542 97.137C97.3699 97.1387 97.3823 97.1346 97.4018 97.1326L97.4692 97.1195L97.7389 97.0669L98.2786 96.9618L98.8191 96.862C98.9091 96.8443 98.9993 96.8291 99.0889 96.8095L99.2234 96.7813L99.2928 96.7672C99.3229 96.7608 99.3536 96.758 99.385 96.7565C99.509 96.7512 99.6466 96.792 99.7396 96.8903C99.8318 96.9873 99.8771 97.13 99.8628 97.263L99.7862 97.8144C99.7363 98.1765 99.6897 98.5393 99.645 98.9022C99.6013 99.2536 99.5611 99.6054 99.5233 99.9574C99.4458 100.674 99.4046 101.395 99.3974 102.116L99.3072 111.23C99.3072 111.23 99.1882 105.278 99.1239 102.451Z" fill="black" fill-opacity="0.15"/>
<path fill-rule="evenodd" clip-rule="evenodd" d="M105.716 102.164C105.716 102.164 105.768 98.5311 104.923 96.4076L105.716 102.164Z" fill="#394249"/>
<path d="M93.5974 130.917H110.625C111.216 130.917 111.713 130.474 111.781 129.887L114.27 108.329C114.35 107.638 113.81 107.031 113.114 107.031H96.0865C95.4955 107.031 94.9981 107.475 94.9303 108.062L92.4411 129.62C92.3612 130.311 92.9016 130.917 93.5974 130.917Z" fill="#D8D8D8" stroke="#444444" stroke-width="0.0777137" stroke-miterlimit="22.2104"/>
<path d="M94.0569 130.893C94.1349 130.908 94.2144 130.917 94.297 130.917H111.324C111.916 130.917 112.413 130.474 112.482 129.887L114.967 108.355L114.971 108.33C115.05 107.638 114.51 107.031 113.813 107.031H96.786C96.1959 107.031 95.6974 107.475 95.6302 108.062L93.1412 129.619C93.0707 130.229 93.4821 130.772 94.0569 130.893Z" fill="#E5E5E5"/>
<path d="M94.0569 130.893C94.1349 130.908 94.2144 130.917 94.297 130.917H111.324C111.916 130.917 112.413 130.474 112.482 129.887L114.967 108.355L114.971 108.33C115.05 107.638 114.51 107.031 113.813 107.031H96.786C96.1959 107.031 95.6974 107.475 95.6302 108.062L93.1412 129.619C93.0707 130.229 93.4821 130.772 94.0569 130.893Z" stroke="#444444" stroke-width="0.0777137" stroke-miterlimit="22.2104"/>
<g opacity="0.8">
<path d="M101.854 118.976C101.854 120.347 102.965 121.458 104.336 121.458C105.707 121.458 106.819 120.347 106.819 118.976C106.819 117.604 105.707 116.493 104.336 116.493C102.965 116.493 101.854 117.604 101.854 118.976Z" fill="white"/>
</g>
<g opacity="0.08">
<path d="M94.0544 130.892C94.1324 130.908 94.2119 130.917 94.2945 130.917H111.322C111.913 130.917 112.41 130.474 112.479 129.887L114.965 108.355C114.887 108.34 114.808 108.331 114.725 108.331H97.6977C97.106 108.331 96.6091 108.774 96.5404 109.361L94.0544 130.892Z" fill="black"/>
</g>
<g opacity="0.1">
<path d="M74.1329 131.007C74.0763 131.271 74.0136 131.523 73.9448 131.765L85.8044 130.183C85.9558 130.163 86.0629 130.027 86.049 129.875L85.0767 119.876C85.0613 119.719 84.9177 119.604 84.7587 119.624L74.6465 120.916C74.6558 121.135 74.6634 121.356 74.6695 121.58L84.1257 120.372C84.2816 120.352 84.4254 120.465 84.4423 120.621L85.407 129.224C85.4237 129.375 85.3153 129.515 85.1639 129.535L74.1329 131.007Z" fill="black"/>
</g>
<path d="M77.4477 129.014C77.4477 129.014 78.8298 128.676 81.9029 127.72C84.9775 126.766 85.9361 126.583 86.7296 127.017C87.5231 127.451 88.6392 127.171 90.0549 126.765C91.4707 126.36 92.5593 125.303 93.1204 125.002C93.6815 124.702 94.5393 125.282 94.9673 126.74C95.0605 127.06 95.1615 127.358 95.2685 127.624C95.2915 127.68 95.3143 127.736 95.3373 127.789C95.3511 127.82 95.3633 127.85 95.377 127.879C95.3999 127.928 95.4229 127.977 95.4444 128.023C95.5574 128.252 95.6752 128.443 95.7944 128.589C95.8081 128.607 95.8235 128.624 95.8372 128.639C95.8526 128.656 95.8663 128.671 95.8816 128.686C95.8953 128.7 95.9107 128.714 95.9244 128.726C95.9381 128.738 95.9534 128.751 95.9686 128.763C95.9825 128.775 95.9977 128.786 96.0116 128.795C96.0329 128.809 96.0528 128.823 96.0742 128.832C96.0773 128.835 96.0803 128.836 96.0834 128.836C96.1033 128.849 96.1246 128.856 96.1445 128.864C96.1753 128.875 96.2061 128.882 96.237 128.885C96.2679 128.889 96.2989 128.888 96.3295 128.884C96.3464 128.882 96.3616 128.879 96.377 128.875C96.3785 128.873 96.3785 128.873 96.38 128.873C96.4289 128.861 96.4763 128.838 96.5237 128.804C97.0771 128.421 96.6078 127.269 96.5926 126.7C96.5818 126.294 96.3066 125.211 96.1506 124.623C96.0864 124.386 96.0421 124.228 96.0421 124.228C96.5605 124.551 97.0726 124.325 97.3539 124.234C97.4426 124.207 97.5359 124.26 97.5558 124.352C97.8614 125.856 98.4119 127.376 99.2207 127.58C99.2864 127.596 99.3491 127.607 99.4057 127.613C100.086 127.674 100.207 126.95 99.8826 125.71C99.531 124.363 99.6258 123.918 99.366 122.849C99.3644 122.846 99.3644 122.841 99.3629 122.838C99.3018 122.595 99.1762 122.383 99.0204 122.198C98.6504 121.756 98.103 121.476 97.8141 121.351C97.6933 121.297 97.6168 121.271 97.6168 121.271C97.7621 120.984 98.4624 121.086 98.7635 121.146C98.8262 121.158 98.8797 121.195 98.9149 121.244C98.9149 121.245 98.9164 121.245 98.9164 121.247C98.9225 121.256 98.9272 121.265 98.9317 121.274C98.9378 121.285 98.9424 121.296 98.947 121.307C99.7421 123.522 101.262 124.806 101.973 124.401C102.042 124.363 102.104 124.308 102.156 124.236C102.447 123.838 101.806 122.623 101.425 121.972C101.286 121.733 101.181 121.573 101.169 121.553C101.948 121.825 102.491 122.068 102.95 121.533C103.009 121.462 103.067 121.378 103.126 121.281C103.622 120.432 101.075 118.94 99.6152 118.36C98.1535 117.782 95.2425 117.715 94.1233 117.191C93.0027 116.666 92.5654 116.654 91.4081 117.645C90.2507 118.634 88.0246 119.684 85.6945 120.692C83.363 121.7 78.4385 121.64 78.4385 121.64L78.4033 121.906L77.4477 129.014Z" fill="#FBC0A4"/>
<g opacity="0.15">
<path d="M77.2697 129.278C77.2697 129.278 78.6502 128.94 81.7248 127.986C84.7995 127.031 85.7566 126.847 86.55 127.283C87.3436 127.717 88.481 127.537 89.8953 127.131C91.311 126.726 92.424 125.876 92.9851 125.575C93.5477 125.274 94.3596 125.548 94.7877 127.005C95.2173 128.463 95.829 129.258 96.3823 128.874C96.3838 128.874 96.3838 128.873 96.3855 128.873C95.8763 129.015 95.3642 128.072 94.9727 126.74C94.5446 125.282 93.687 124.702 93.1259 125.002C92.5648 125.303 91.4762 126.359 90.0604 126.764C88.6447 127.171 87.5286 127.451 86.735 127.017C85.9416 126.583 84.983 126.766 81.9083 127.72C78.8352 128.676 77.4532 129.014 77.4532 129.014L78.4088 121.906H78.2589L77.2697 129.278Z" fill="black"/>
</g>
<path d="M84.0851 127.342L86.0453 127.442L85.2016 120.565L82.7685 121.116L84.0851 127.342Z" fill="#14B8A6"/>
<g opacity="0.15">
<path d="M96.0411 124.231C96.0411 124.231 96.0854 124.389 96.1497 124.626C96.561 124.739 96.9416 124.575 97.1679 124.503C97.2566 124.474 97.3514 124.529 97.3698 124.621C97.6756 126.125 98.1051 127.375 98.9138 127.579C99.1066 127.628 99.2702 127.641 99.4047 127.616C99.3481 127.61 99.2854 127.599 99.2197 127.583C98.4109 127.379 97.8606 125.859 97.5548 124.355C97.5348 124.263 97.4416 124.21 97.3529 124.237C97.0716 124.327 96.5595 124.554 96.0411 124.231Z" fill="black"/>
</g>
<g opacity="0.15">
<path d="M97.6223 121.269C97.6223 121.269 97.6987 121.295 97.8195 121.349C98.081 121.323 98.4051 121.375 98.5855 121.41C98.6467 121.422 98.7002 121.457 98.7354 121.508C98.7369 121.51 98.7369 121.51 98.7369 121.511C98.743 121.519 98.749 121.528 98.7536 121.539C98.7583 121.548 98.7644 121.558 98.7675 121.569C98.8469 121.789 98.9325 121.997 99.0258 122.196C99.1817 122.381 99.3071 122.594 99.3683 122.836C100.26 124.304 101.46 124.925 101.978 124.399C101.267 124.804 99.7474 123.52 98.9525 121.305C98.9479 121.294 98.9432 121.283 98.9371 121.272C98.9325 121.263 98.928 121.254 98.9219 121.245C98.9219 121.243 98.9204 121.243 98.9204 121.242C98.8852 121.193 98.8317 121.156 98.769 121.144C98.4677 121.084 97.7676 120.982 97.6223 121.269Z" fill="black"/>
</g>
<path d="M99.0237 122.201C99.1308 122.429 99.2454 122.643 99.3662 122.842C99.305 122.599 99.1797 122.386 99.0237 122.201Z" stroke="#FBC0A4" stroke-width="0.152065" stroke-miterlimit="22.2104"/>
<g opacity="0.15">
<path d="M101.17 121.555C101.182 121.575 101.288 121.736 101.427 121.974C102.07 122.188 102.534 122.247 102.944 121.549C102.947 121.545 102.948 121.54 102.951 121.536C102.493 122.071 101.95 121.828 101.17 121.555Z" fill="black"/>
</g>
<path d="M96.1528 118.568C96.6887 118.601 97.2245 118.646 97.7571 118.708C98.0234 118.741 98.2887 118.779 98.5521 118.825C98.8148 118.873 99.077 118.929 99.3254 119.017C99.448 119.062 99.5716 119.115 99.6651 119.193L99.6986 119.223C99.7097 119.234 99.7205 119.247 99.7315 119.259L99.7971 119.332C99.838 119.384 99.8803 119.435 99.9197 119.489C100.077 119.703 100.221 119.929 100.36 120.159C100.641 120.616 100.888 121.095 101.173 121.553C101.046 121.315 100.932 121.072 100.81 120.831C100.688 120.592 100.564 120.352 100.432 120.117C100.299 119.882 100.161 119.649 100.002 119.428C99.9629 119.373 99.92 119.319 99.8784 119.265L99.8109 119.187C99.7993 119.174 99.789 119.161 99.7765 119.148L99.735 119.11C99.621 119.016 99.4913 118.962 99.3627 118.914C99.1037 118.822 98.8381 118.764 98.5719 118.715C98.3058 118.666 98.0375 118.632 97.7693 118.602C97.2326 118.544 96.6946 118.51 96.1551 118.499C96.1361 118.499 96.1204 118.514 96.1201 118.533C96.1196 118.551 96.1339 118.567 96.1522 118.568H96.1528Z" fill="#F69D7D"/>
<path d="M95.9172 120.707C96.2865 120.836 97.6193 121.276 97.6193 121.276C97.7648 120.988 98.4655 121.092 98.7665 121.151C98.8284 121.163 98.8821 121.199 98.9174 121.249C98.4512 120.504 95.557 120.581 95.9172 120.707Z" fill="#F69D7D"/>
<path d="M95.0208 122.68C95.0208 122.68 95.9123 123.732 96.0466 124.229C96.0466 124.229 95.949 123.542 95.0208 122.68Z" fill="#F69D7D"/>
<path d="M98.2878 123.412C98.2878 123.412 97.916 124.181 97.3581 124.237C97.3581 124.237 97.7975 124.164 98.2878 123.412Z" fill="#F69D7D"/>
<path d="M98.7598 121.084C98.7598 121.084 99.1406 120.748 99.1969 120.35C99.1969 120.35 99.2248 120.791 98.7598 121.084Z" fill="#F69D7D"/>
<path d="M95.934 124.768C95.934 124.768 95.6953 125.26 95.06 125.184C95.06 125.184 95.5733 125.187 95.934 124.768Z" fill="#F69D7D"/>
<path d="M93.6123 118.021C93.6123 118.021 92.9534 117.887 92.3553 118.498C92.3553 118.498 92.8034 118.041 93.6123 118.021Z" fill="#F69D7D"/>
<path d="M94.0387 119.646C94.0387 119.646 93.3798 119.513 92.7818 120.124C92.7818 120.124 93.2298 119.667 94.0387 119.646Z" fill="#F69D7D"/>
<path d="M93.8055 121.574C93.8055 121.574 93.1465 121.44 92.5485 122.051C92.5485 122.051 92.9965 121.594 93.8055 121.574Z" fill="#F69D7D"/>
<g opacity="0.6">
<path d="M102.534 120.171C102.572 120.138 103.238 120.764 103.109 121.134C102.98 121.505 102.837 121.527 102.488 121.237C102.138 120.946 101.943 120.694 102.534 120.171Z" fill="white"/>
</g>
<g opacity="0.6">
<path d="M101.724 123.229C101.808 123.167 101.929 123.197 101.972 123.293C102.084 123.536 102.242 123.964 102.082 124.166C101.851 124.458 101.591 124.321 101.493 124.094C101.395 123.868 101.261 123.597 101.345 123.52C101.396 123.473 101.585 123.332 101.724 123.229Z" fill="white"/>
</g>
<g opacity="0.6">
<path d="M99.6027 126.362C99.6949 126.312 99.81 126.359 99.8403 126.459C99.9174 126.716 100.014 127.162 99.8281 127.34C99.5591 127.597 99.3212 127.425 99.2553 127.187C99.1894 126.949 99.0937 126.663 99.1878 126.598C99.245 126.559 99.4507 126.445 99.6027 126.362Z" fill="white"/>
</g>
<g opacity="0.6">
<path d="M96.4338 127.78C96.5099 127.739 96.6047 127.778 96.6296 127.861C96.6934 128.072 96.7732 128.439 96.6197 128.586C96.3979 128.798 96.2018 128.657 96.1475 128.461C96.0932 128.264 96.0143 128.028 96.0918 127.975C96.1389 127.942 96.3084 127.849 96.4338 127.78Z" fill="white"/>
</g>
<path d="M86.8846 127.036C86.8846 127.036 85.827 126.35 85.922 125.742C85.922 125.742 86.1836 126.484 86.8846 127.036Z" fill="#F69D7D"/>
<path d="M65.342 129.866C66.6079 130.983 68.3875 131.628 70.8063 131.45L85.167 129.532C85.3184 129.512 85.4271 129.373 85.4102 129.222L84.4454 120.619C84.4287 120.463 84.2849 120.35 84.129 120.37L72.7525 121.824C72.1196 121.886 71.6502 121.247 71.9025 120.663L74.2295 114.884C74.2295 114.884 74.6774 100.332 72.3657 96.7652C71.8259 95.9288 71.1334 95.6964 70.2482 96.3936C67.2959 98.7222 64.5317 111.406 62.9018 120.394C62.3331 123.53 62.8102 127.638 65.342 129.866Z" fill="#434D56"/>
<path d="M74.2299 114.886C74.2299 114.886 73.3274 105.916 70.822 100.557C70.822 100.557 72.8009 106.7 74.2299 114.886Z" fill="black" fill-opacity="0.15"/>
<path d="M92.2985 99.4307L92.2997 99.4319C92.3968 99.5045 98.106 101.848 100.15 99.4891C102.545 96.7257 102.566 94.384 101.88 92.7471C99.2361 91.2214 93.7205 86.9714 94.0391 89.9363C94.4122 93.4082 92.5104 93.3467 95.1239 96.0679C97.7372 98.7891 92.2985 99.4307 92.2985 99.4307Z" fill="#262423"/>
<g opacity="0.2">
<path d="M101.027 96.2787C101.027 96.2787 102.208 93.9 100.032 91.2194C100.032 91.2194 101.617 93.3782 101.027 96.2787Z" fill="black"/>
</g>
<g opacity="0.2">
<path d="M95.0197 99.5542C95.0197 99.5542 99.0336 98.6806 97.5492 94.1688C97.5492 94.1688 99.0563 97.9354 95.0197 99.5542Z" fill="black"/>
</g>
<g opacity="0.2">
<path d="M97.5927 93.7161C97.5927 93.7161 95.994 91.0121 95.9897 88.0615C95.9897 88.0615 96.1878 90.7032 97.5927 93.7161Z" fill="black"/>
</g>
</g>
</g>
</g>
<defs>
<clipPath id="clip0_1_1518">
<rect width="137" height="137" fill="white"/>
</clipPath>
</defs>
</svg>
