<svg width="137" height="137" viewBox="0 0 137 137" fill="none" xmlns="http://www.w3.org/2000/svg">
<path d="M46.306 9.51876C46.7044 9.28009 47.1329 9.09579 47.5801 8.97076L47.8404 7.7131L49.9666 7.67474L50.2735 8.92418C50.7242 9.03532 51.1582 9.20577 51.5641 9.43108L52.6381 8.7269L54.1698 10.2065L53.504 11.3025C53.7428 11.6998 53.9271 12.1274 54.052 12.5739L55.3096 12.8342L55.348 14.9604L54.0986 15.2645C53.9879 15.7154 53.8174 16.1494 53.5917 16.5551L54.2958 17.6319L52.8162 19.1608L51.7202 18.495C51.3229 18.7338 50.8953 18.9181 50.4489 19.043L50.1749 20.3007L48.0486 20.339L47.7418 19.0896C47.2919 18.9784 46.8589 18.808 46.454 18.5827L45.3771 19.2869L43.84 17.81L44.5058 16.714C44.2671 16.3156 44.0828 15.8871 43.9578 15.4399L42.7002 15.1659L42.6618 13.0397L43.9112 12.7328C44.0224 12.2821 44.1928 11.8481 44.4181 11.4422L43.714 10.3654L45.21 8.85294L46.306 9.51876ZM47.4404 12.3519C47.1267 12.6765 46.9163 13.0868 46.8358 13.531C46.7553 13.9752 46.8083 14.4332 46.9881 14.8473C47.1679 15.2613 47.4665 15.6127 47.846 15.8571C48.2256 16.1014 48.669 16.2278 49.1204 16.2201C49.5717 16.2125 50.0106 16.0711 50.3816 15.814C50.7527 15.5569 51.0391 15.1956 51.2048 14.7757C51.3704 14.3558 51.4079 13.8962 51.3123 13.455C51.2168 13.0138 50.9926 12.6109 50.6681 12.2971C50.4522 12.0874 50.197 11.9225 49.9171 11.8117C49.6373 11.7009 49.3383 11.6465 49.0374 11.6516C48.7364 11.6567 48.4395 11.7212 48.1635 11.8414C47.8876 11.9615 47.6381 12.135 47.4294 12.3519H47.4404Z" fill="#E0E0E0"/>
<path d="M46.7992 80.0847C47.0286 79.9464 47.2756 79.8395 47.5335 79.7669L47.6842 79.0408L48.9117 79.0189L49.0871 79.7395C49.3474 79.8024 49.5981 79.9001 49.8324 80.0299L50.4516 79.6244L51.3339 80.4765L50.964 81.104C51.1023 81.3335 51.2092 81.5804 51.2818 81.8383L52.0079 81.989L52.0298 83.2165L51.3092 83.3919C51.2463 83.6522 51.1486 83.9029 51.0188 84.1372L51.4243 84.7564L50.5722 85.6387L49.9392 85.2551C49.7093 85.3931 49.4625 85.5009 49.2049 85.5757L49.046 86.31L47.8185 86.3319L47.6431 85.6113C47.3828 85.5484 47.1321 85.4507 46.8978 85.3209L46.2786 85.7264L45.3963 84.8742L45.7799 84.2413C45.6419 84.0114 45.5341 83.7645 45.4593 83.507L44.736 83.3563L44.7141 82.1288L45.4347 81.9534C45.4976 81.6931 45.5953 81.4424 45.7251 81.2081L45.3196 80.5889L46.1717 79.7066L46.8047 80.0902L46.7992 80.0847ZM47.4541 81.7287C47.2726 81.9161 47.1508 82.1531 47.1041 82.4098C47.0574 82.6664 47.088 82.9311 47.1918 83.1704C47.2957 83.4097 47.4682 83.6127 47.6876 83.7539C47.9069 83.8951 48.1633 83.9679 48.4241 83.9633C48.6849 83.9587 48.9384 83.8768 49.1527 83.728C49.3669 83.5792 49.5322 83.3701 49.6275 83.1273C49.7229 82.8845 49.744 82.6189 49.6883 82.3641C49.6326 82.1092 49.5025 81.8767 49.3145 81.6958C49.1909 81.5751 49.0448 81.4798 48.8844 81.4156C48.724 81.3513 48.5525 81.3193 48.3797 81.3213C48.207 81.3233 48.0363 81.3594 47.8774 81.4274C47.7186 81.4954 47.5747 81.5941 47.4541 81.7178V81.7287Z" fill="#E0E0E0"/>
<path d="M20.0787 16.2838C20.2355 16.189 20.4041 16.1153 20.5801 16.0646L20.6842 15.5687H21.5199L21.646 16.0455C21.8236 16.0906 21.9948 16.1578 22.1556 16.2455L22.5776 15.9715L23.1804 16.5524L22.9064 16.9853C23.0012 17.142 23.0749 17.3106 23.1256 17.4867L23.6215 17.5908V18.4128L23.1283 18.5334C23.0854 18.7112 23.0191 18.8826 22.931 19.043L23.205 19.465L22.6242 20.0678L22.1912 19.7938C22.0345 19.8886 21.8659 19.9623 21.6898 20.013L21.5857 20.5089H20.7637L20.6431 20.0157C20.4653 19.9728 20.2939 19.9065 20.1335 19.8184L19.7115 20.0924L19.1087 19.5088L19.3827 19.0786C19.2879 18.9219 19.2142 18.7533 19.1635 18.5772L18.6676 18.4731L18.6539 17.6511L19.1444 17.5305C19.1895 17.353 19.2567 17.1817 19.3444 17.0209L19.0704 16.5989L19.6513 15.9961L20.0842 16.2701L20.0787 16.2838ZM20.5253 17.399C20.4019 17.5269 20.3192 17.6885 20.2876 17.8634C20.256 18.0382 20.2769 18.2186 20.3478 18.3815C20.4186 18.5445 20.5362 18.6828 20.6857 18.779C20.8351 18.8751 21.0098 18.9248 21.1874 18.9218C21.3651 18.9187 21.5379 18.863 21.684 18.7618C21.83 18.6605 21.9428 18.5182 22.008 18.3529C22.0732 18.1876 22.0879 18.0067 22.0503 17.833C22.0127 17.6593 21.9244 17.5006 21.7967 17.3771C21.7118 17.295 21.6115 17.2305 21.5017 17.1871C21.3918 17.1438 21.2745 17.1225 21.1565 17.1246C21.0384 17.1266 20.9219 17.1519 20.8136 17.199C20.7053 17.2461 20.6073 17.3141 20.5253 17.399Z" fill="#E0E0E0"/>
<path d="M60.9814 14.522C61.2905 14.3352 61.6232 14.1905 61.9706 14.0918L62.1733 13.1136L63.8173 13.0835L64.0557 14.0562C64.4071 14.1421 64.7453 14.2748 65.0613 14.4508L65.8833 13.9028L67.0971 15.07L66.582 15.9139C66.7694 16.2236 66.9141 16.5573 67.0122 16.9058L67.9931 17.1086L68.0205 18.7526L67.0505 18.9909C66.9622 19.3441 66.8277 19.684 66.6505 20.002L67.1985 20.8404L66.0504 22.0296L65.1956 21.5117C64.8862 21.698 64.5536 21.8426 64.2064 21.9419L64.0009 22.9201L62.3569 22.9502L62.1185 21.9775C61.7635 21.8937 61.4215 21.7618 61.102 21.5857L60.28 22.1337L59.0881 20.9857L59.6059 20.1308C59.4195 19.8205 59.2749 19.487 59.1758 19.1389L58.1976 18.9361L58.1674 17.2921L59.1402 17.0538C59.2261 16.7033 59.3588 16.366 59.5347 16.0509L58.9867 15.2125L60.1348 14.0233L60.9814 14.522ZM61.8637 16.714C61.62 16.9668 61.4567 17.2863 61.3945 17.6319C61.3323 17.9776 61.374 18.3339 61.5144 18.6559C61.6547 18.9778 61.8874 19.2509 62.183 19.4406C62.4785 19.6303 62.8237 19.728 63.1749 19.7215C63.526 19.715 63.8674 19.6045 64.1557 19.404C64.444 19.2035 64.6664 18.9219 64.7947 18.595C64.923 18.2681 64.9515 17.9104 64.8765 17.5673C64.8016 17.2242 64.6265 16.911 64.3736 16.6674C64.2044 16.5068 64.0053 16.3811 63.7875 16.2976C63.5697 16.2141 63.3376 16.1744 63.1044 16.1808C62.8713 16.1871 62.6416 16.2395 62.4287 16.3347C62.2158 16.43 62.0238 16.5663 61.8637 16.7359V16.714Z" fill="#EBEBEB"/>
<path d="M104.726 55.3754C105.122 55.1366 105.549 54.9523 105.994 54.8274L106.268 53.5697L108.392 53.5314L108.699 54.7808C109.15 54.8907 109.584 55.0612 109.989 55.2877L111.06 54.5835L112.589 56.0604L111.926 57.1564C112.164 57.5545 112.348 57.9819 112.474 58.4278L113.732 58.7018L113.77 60.8253L112.521 61.1321C112.411 61.5824 112.24 62.0156 112.014 62.4199L112.718 63.494L111.244 65.0065L110.148 64.3407C109.75 64.5791 109.323 64.7634 108.877 64.8887L108.603 66.1463L106.479 66.182L106.172 64.938C105.722 64.8268 105.289 64.6564 104.884 64.4311L103.81 65.1353L102.281 63.6584L102.947 62.5624C102.709 62.166 102.524 61.7393 102.399 61.2938L101.142 61.0198L101.106 58.91L102.353 58.6031C102.464 58.1524 102.634 57.7184 102.86 57.3126L102.155 56.2412L103.632 54.7123L104.728 55.3781L104.726 55.3754ZM105.857 58.2058C105.544 58.5303 105.335 58.9404 105.255 59.384C105.175 59.8277 105.228 60.285 105.408 60.6983C105.588 61.1116 105.887 61.4622 106.266 61.7059C106.645 61.9496 107.088 62.0754 107.539 62.0673C107.99 62.0593 108.428 61.9178 108.798 61.6607C109.169 61.4037 109.454 61.0426 109.62 60.6232C109.785 60.2037 109.822 59.7448 109.726 59.3042C109.63 58.8637 109.406 58.4614 109.082 58.1483C108.867 57.9398 108.613 57.7759 108.334 57.666C108.055 57.556 107.757 57.5022 107.458 57.5075C107.158 57.5129 106.862 57.5773 106.588 57.6971C106.313 57.817 106.065 57.9898 105.857 58.2058Z" fill="#E0E0E0"/>
<path d="M119.738 14.0343C119.74 13.1492 119.537 12.2758 119.146 11.4818C118.755 10.6878 118.186 9.99473 117.484 9.45643C116.781 8.91814 115.964 8.54915 115.096 8.37816C114.227 8.20717 113.331 8.23879 112.477 8.47056C111.623 8.70234 110.834 9.12802 110.171 9.71449C109.508 10.301 108.99 11.0324 108.656 11.852C108.322 12.6716 108.181 13.5571 108.245 14.4398C108.309 15.3226 108.576 16.1786 109.025 16.9414L109.041 16.9633C109.26 17.336 109.537 17.6018 109.816 17.9908L113.162 22.4187C113.259 22.5443 113.384 22.6461 113.526 22.7161C113.669 22.7861 113.825 22.8225 113.984 22.8225C114.143 22.8225 114.299 22.7861 114.442 22.7161C114.584 22.6461 114.709 22.5443 114.806 22.4187L118.094 18.0648C118.393 17.7153 118.672 17.3494 118.93 16.9688L118.943 16.9524C119.465 16.0686 119.74 15.0606 119.738 14.0343ZM113.984 16.5386C113.483 16.5381 112.994 16.3891 112.578 16.1106C112.162 15.8321 111.838 15.4365 111.647 14.9738C111.456 14.5112 111.406 14.0022 111.504 13.5113C111.602 13.0203 111.843 12.5695 112.197 12.2157C112.552 11.8619 113.003 11.621 113.494 11.5236C113.985 11.4261 114.494 11.4764 114.956 11.6681C115.419 11.8598 115.814 12.1843 116.092 12.6006C116.37 13.0169 116.519 13.5063 116.519 14.0069C116.519 14.3396 116.453 14.669 116.326 14.9764C116.198 15.2837 116.011 15.5629 115.776 15.7981C115.541 16.0332 115.261 16.2196 114.954 16.3467C114.646 16.4738 114.317 16.539 113.984 16.5386Z" fill="#E0E0E0"/>
<path d="M18.432 96.8453C19.0151 96.4399 19.4663 95.8723 19.7298 95.2128C19.9934 94.5533 20.0575 93.831 19.9143 93.1354C19.5389 91.1653 17.7223 89.8474 15.8893 90.2008C14.0562 90.5543 12.8479 92.4339 13.2232 94.4067C13.3458 95.1123 13.675 95.7657 14.1691 96.2842C14.6632 96.8027 15.2999 97.1629 15.9989 97.3193C11.0066 99.0949 12.33 104.641 12.33 104.641L24.5038 102.328C24.5038 102.328 23.6818 96.6234 18.432 96.8453Z" fill="#EBEBEB"/>
<path d="M33.1814 120.486L30.688 119.867C30.688 119.867 30.1701 121.971 27.9726 121.47C27.5478 121.381 27.1611 121.162 26.8665 120.843C26.5718 120.525 26.3838 120.122 26.3286 119.691C26.2768 119.331 26.3111 118.963 26.4288 118.618C26.5464 118.273 26.744 117.961 27.0054 117.708C27.6027 117.11 28.6933 116.702 30.2934 117.417L31.6881 111.765L29.2084 111.154L28.3864 114.466C28.3864 114.466 24.6901 114.507 23.7476 118.338C22.8434 122.004 25.9204 123.664 27.3287 124.01C28.4083 124.275 32.1374 124.919 33.1814 120.486Z" fill="#EBEBEB"/>
<path d="M29.4637 109.983L31.9778 110.603L32.5566 108.253L30.0425 107.634L29.4637 109.983Z" fill="#EBEBEB"/>
<path d="M128.265 129.027C128.265 129.065 101.594 129.098 68.7028 129.098C35.8118 129.098 9.13791 129.054 9.13791 129.027C9.13791 128.999 35.8009 128.955 68.7028 128.955C101.605 128.955 128.265 128.985 128.265 129.027Z" fill="black"/>
<path d="M15.892 60.0608H21.6159L21.1117 62.6282H10.8011L11.2093 60.5869L17.4154 55.7234C18.9498 54.4959 19.4184 53.778 19.4184 52.882C19.4184 51.986 18.7361 51.3832 17.4154 51.3832C16.858 51.3916 16.3094 51.5235 15.8091 51.7694C15.3087 52.0153 14.8692 52.3691 14.522 52.8053L12.4012 51.2682C13.4972 49.7694 15.5331 48.7775 17.8812 48.7775C20.761 48.7775 22.6461 50.3146 22.6461 52.4354C22.6461 54.0493 21.909 55.411 19.5143 57.2605L15.892 60.0608Z" fill="#263238"/>
<path d="M35.2528 59.7704H33.017L32.4526 62.6282H29.3783L29.9619 59.7704H22.6269L23.0352 57.6496L31.0524 49.0104H34.4939L27.0246 57.2003H30.6031L31.11 54.6521H34.0472L33.5403 57.2003H35.7789L35.2528 59.7704Z" fill="#263238"/>
<path d="M44.24 46.2485H47.0814L37.0832 64.5736H34.25L44.24 46.2485Z" fill="#263238"/>
<path d="M57.2167 49.0104L56.8084 51.0544L49.5337 62.6282H46.032L53.0135 51.5778H48.5994L48.15 53.7972H45.3497L46.306 49.0104H57.2167Z" fill="#263238"/>
<path d="M9.52698 73.3717L10.3243 71.8593C11.035 72.3133 11.8594 72.5574 12.7026 72.5634C13.4808 72.5634 13.9302 72.3196 13.9302 71.9305C13.9302 70.9688 10.4558 71.5003 10.4558 69.2535C10.4558 67.7109 11.7738 66.6998 13.8891 66.6998C14.7862 66.6701 15.6748 66.882 16.4619 67.3136L15.7276 68.8151C15.1379 68.4522 14.4581 68.2623 13.7658 68.2671C12.9273 68.2671 12.478 68.574 12.478 68.9631C12.478 69.944 15.9523 69.3823 15.9523 71.588C15.9523 73.1197 14.6042 74.1307 12.5108 74.1307C11.2833 74.1362 10.1709 73.8101 9.52698 73.3717Z" fill="#263238"/>
<path d="M19.5554 68.4069L19.3225 69.6125H22.4981L22.194 71.1222H19.0156L18.758 72.4319H22.5091L22.1803 73.9937H16.44L17.8812 66.856H23.4791L23.1612 68.4206L19.5554 68.4069Z" fill="#263238"/>
<path d="M28.696 71.8483L29.9126 73.9937H27.7973L26.7342 72.0949H25.7149L25.3368 73.9937H23.3147L24.7422 66.856H27.7973C29.6249 66.856 30.677 67.7054 30.677 69.1357C30.6914 69.7428 30.505 70.3377 30.1469 70.8282C29.7887 71.3186 29.2787 71.6772 28.696 71.8483ZM27.5123 68.437H26.4492L26.03 70.5304H27.2356C28.1261 70.5304 28.6467 70.1029 28.6467 69.3165C28.6357 68.7137 28.2056 68.437 27.5123 68.437Z" fill="#263238"/>
<path d="M39.5409 66.856L35.072 73.9937H33.08L31.4415 66.856H33.5157L34.5377 71.514L37.4585 66.856H39.5409Z" fill="#263238"/>
<path d="M39.9684 66.856H41.9932L40.552 73.9937H38.5299L39.9684 66.856Z" fill="#263238"/>
<path d="M42.3083 70.9907C42.3083 68.5082 44.1359 66.6998 46.791 66.6998C48.1089 66.6998 49.183 67.1821 49.6926 68.0479L48.224 69.2124C48.0599 68.9467 47.8273 68.7301 47.5505 68.5854C47.2737 68.4408 46.9631 68.3734 46.6512 68.3904C45.2621 68.3904 44.3414 69.4617 44.3414 70.8701C44.3414 71.8318 44.9963 72.4758 46.0896 72.4758C46.4233 72.4773 46.7532 72.4044 47.0552 72.2622C47.3572 72.1199 47.6236 71.9121 47.8349 71.6538L49.0296 72.8265C48.224 73.7992 47.1718 74.1554 45.895 74.1554C43.7085 74.1362 42.3083 72.8594 42.3083 70.9907Z" fill="#263238"/>
<path d="M52.6436 68.4069L52.408 69.6125H55.5836L55.2877 71.1222H52.1011L51.8463 72.4319H55.5946L55.2685 73.9937H49.5392L50.964 66.856H56.5618L56.2467 68.4206L52.6436 68.4069Z" fill="#263238"/>
<path d="M17.3031 44.9798H13.3109C13.3109 39.4231 15.5605 33.7458 19.4814 29.3892C23.6078 24.8107 28.9645 22.2899 34.5514 22.2899C45.969 22.2899 53.9451 30.625 53.9451 42.5659H49.9612C49.9612 32.8307 43.7715 26.2903 34.5596 26.2903C25.5286 26.2821 17.3031 35.1925 17.3031 44.9798Z" fill="#398276"/>
<path d="M19.4923 43.8701C20.1308 43.8701 20.6486 43.9331 20.6459 43.9907C20.6431 44.0482 20.128 44.0921 19.4923 44.0921C18.8567 44.0921 18.3361 44.04 18.3361 43.9715C18.3361 43.903 18.8567 43.8592 19.4923 43.8701Z" fill="#263238"/>
<path d="M22.2488 35.1186C22.7968 35.4693 23.1667 35.8282 23.1064 35.9241C23.0461 36.02 22.5584 35.8255 22.0104 35.4939C21.4624 35.1624 21.098 34.798 21.1555 34.6884C21.2131 34.5788 21.7145 34.7706 22.2488 35.1186Z" fill="#263238"/>
<path d="M29.1536 29.0878C29.4139 29.6715 29.5427 30.1838 29.4276 30.2277C29.3125 30.2715 29.0193 29.8468 28.7399 29.2742C28.4604 28.7015 28.3316 28.1782 28.4659 28.1343C28.6001 28.0905 28.896 28.496 29.1536 29.0878Z" fill="#263238"/>
<path d="M38.2504 28.3699C38.0915 28.9892 37.875 29.4659 37.7681 29.444C37.6613 29.4221 37.6832 28.896 37.8202 28.2686C37.9572 27.6411 38.1709 27.1726 38.3024 27.1972C38.434 27.2219 38.4093 27.7534 38.2504 28.3699Z" fill="#263238"/>
<path d="M45.6813 33.5924C45.1497 33.9431 44.6702 34.1568 44.6072 34.0691C44.5442 33.9815 44.9141 33.6033 45.4292 33.228C45.9443 32.8526 46.4265 32.6416 46.5033 32.7512C46.58 32.8608 46.2128 33.2389 45.6813 33.5924Z" fill="#263238"/>
<path d="M48.1281 42.196C47.4924 42.196 46.9745 42.1467 46.9745 42.0919C46.9745 42.0371 47.4897 41.9823 48.1281 41.9741C48.7665 41.9658 49.2816 42.0124 49.2844 42.0782C49.2871 42.1439 48.772 42.196 48.1281 42.196Z" fill="#263238"/>
<path d="M33.4691 43.3852C33.2702 43.3865 33.0768 43.3198 32.9211 43.1961L26.2108 37.9901C26.0248 37.8448 25.9041 37.6315 25.8754 37.3972C25.8466 37.1628 25.9121 36.9267 26.0574 36.7407C26.2027 36.5546 26.416 36.4339 26.6503 36.4052C26.8847 36.3764 27.1208 36.4419 27.3068 36.5872L33.428 41.3329L41.8809 33.5705C42.0535 33.4102 42.2827 33.3251 42.518 33.3339C42.7534 33.3426 42.9756 33.4445 43.1358 33.6171C43.2961 33.7896 43.3812 34.0188 43.3724 34.2542C43.3637 34.4895 43.2618 34.7117 43.0892 34.872L34.0829 43.1468C33.9161 43.3015 33.6966 43.3867 33.4691 43.3852Z" fill="#398276"/>
<path d="M38.0202 16.4208H30.3263C30.2068 16.4208 30.1099 16.5177 30.1099 16.6373V19.4238C30.1099 19.5434 30.2068 19.6403 30.3263 19.6403H38.0202C38.1398 19.6403 38.2367 19.5434 38.2367 19.4238V16.6373C38.2367 16.5177 38.1398 16.4208 38.0202 16.4208Z" fill="#398276"/>
<path d="M36.2721 18.0319H32.0717V21.8405H36.2721V18.0319Z" fill="#398276"/>
<path d="M16.8347 26.2738L13.6794 30.1814C13.5568 30.3332 13.5805 30.5558 13.7323 30.6784L15.8897 32.4204C16.0416 32.5431 16.2641 32.5194 16.3868 32.3675L19.542 28.4599C19.6647 28.308 19.641 28.0855 19.4891 27.9629L17.3317 26.2209C17.1798 26.0982 16.9573 26.1219 16.8347 26.2738Z" fill="#398276"/>
<path d="M38.0202 19.6403C38.0202 19.6869 36.2968 19.7225 34.1842 19.7225C32.0717 19.7225 30.3482 19.6869 30.3482 19.6403C30.3482 19.5937 32.069 19.5581 34.1842 19.5581C36.2995 19.5581 38.0202 19.5965 38.0202 19.6403Z" fill="#263238"/>
<path d="M16.7633 31.6963C16.7195 31.7456 16.1386 31.3018 15.4207 30.762C14.7028 30.2222 14.1192 29.7838 14.1548 29.729C14.1905 29.6742 14.8344 30.0304 15.5605 30.5757C16.2866 31.1209 16.8044 31.6497 16.7633 31.6963Z" fill="#263238"/>
<path d="M17.4319 30.7126C17.388 30.762 16.8072 30.3181 16.0893 29.7783C15.3714 29.2385 14.785 28.8001 14.8207 28.7453C14.8563 28.6905 15.5029 29.0467 16.229 29.5947C16.9551 30.1427 17.473 30.6661 17.4319 30.7126Z" fill="#263238"/>
<path d="M18.2511 29.8879C18.21 29.9372 17.6291 29.4933 16.9113 28.9536C16.1934 28.4138 15.618 27.9754 15.6426 27.9206C15.6673 27.8658 16.3249 28.222 17.0483 28.77C17.7716 29.318 18.295 29.8413 18.2511 29.8879Z" fill="#263238"/>
<path d="M19.0457 28.9042C19.0046 28.9536 18.421 28.5097 17.7031 27.9699C16.9853 27.4301 16.4016 26.9917 16.44 26.9369C16.4784 26.8821 17.1223 27.2383 17.8456 27.7863C18.569 28.3343 19.0868 28.8577 19.0457 28.9042Z" fill="#263238"/>
<path d="M53.4867 27.5088L50.0904 23.8089C49.9584 23.6651 49.7348 23.6555 49.591 23.7875L47.5482 25.6626C47.4044 25.7946 47.3949 26.0182 47.5269 26.162L50.9232 29.862C51.0552 30.0058 51.2788 30.0154 51.4226 29.8834L53.4654 28.0082C53.6092 27.8762 53.6187 27.6526 53.4867 27.5088Z" fill="#398276"/>
<path d="M48.1336 26.6383C48.0925 26.5889 48.6158 26.0903 49.257 25.4491C49.8981 24.8079 50.416 24.3065 50.4653 24.3531C50.5146 24.3997 50.068 24.9833 49.4186 25.619C48.7693 26.2547 48.1719 26.6848 48.1336 26.6383Z" fill="#263238"/>
<path d="M49.0076 27.4438C48.9638 27.3945 49.4899 26.8958 50.1283 26.2547C50.7667 25.6135 51.29 25.1121 51.3394 25.1587C51.3887 25.2053 50.9393 25.7889 50.2927 26.4246C49.646 27.0602 49.046 27.4904 49.0076 27.4438Z" fill="#263238"/>
<path d="M49.7009 28.3782C49.657 28.3288 50.1831 27.8302 50.8215 27.189C51.4599 26.5478 51.9833 26.0464 52.0326 26.093C52.0819 26.1396 51.6326 26.7205 50.9832 27.3561C50.3338 27.9918 49.7392 28.4247 49.7009 28.3782Z" fill="#263238"/>
<path d="M50.5557 29.318C50.5119 29.2687 51.038 28.77 51.6764 28.1288C52.3148 27.4877 52.8381 26.9862 52.8875 27.0328C52.9368 27.0794 52.4874 27.663 51.838 28.2987C51.1887 28.9344 50.5941 29.3563 50.5557 29.318Z" fill="#263238"/>
<path d="M31.1894 19.6376C31.1264 19.6376 31.0743 18.9252 31.0743 18.0511C31.0743 17.1771 31.1264 16.4619 31.1894 16.4619C31.2524 16.4619 31.3072 17.1743 31.3072 18.0511C31.3072 18.9279 31.2552 19.6376 31.1894 19.6376Z" fill="#263238"/>
<path d="M32.6964 19.6376C32.6334 19.6376 32.5813 18.9252 32.5813 18.0511C32.5813 17.1771 32.6334 16.4619 32.6964 16.4619C32.7594 16.4619 32.8115 17.1743 32.8115 18.0511C32.8115 18.9279 32.7594 19.6376 32.6964 19.6376Z" fill="#263238"/>
<path d="M34.2007 19.6376C34.1377 19.6376 34.0856 18.9252 34.0856 18.0511C34.0856 17.1771 34.1377 16.4619 34.2007 16.4619C34.2637 16.4619 34.3158 17.1743 34.3158 18.0511C34.3158 18.9279 34.2664 19.6376 34.2007 19.6376Z" fill="#263238"/>
<path d="M35.7077 19.6376C35.6419 19.6376 35.5926 18.9252 35.5926 18.0511C35.5926 17.1771 35.6419 16.4619 35.7077 16.4619C35.7734 16.4619 35.8228 17.1743 35.8228 18.0511C35.8228 18.9279 35.7707 19.6376 35.7077 19.6376Z" fill="#263238"/>
<path d="M37.2119 19.6376C37.1489 19.6376 37.0969 18.9252 37.0969 18.0511C37.0969 17.1771 37.1489 16.4619 37.2119 16.4619C37.275 16.4619 37.327 17.1743 37.327 18.0511C37.327 18.9279 37.264 19.6376 37.2119 19.6376Z" fill="#263238"/>
<path d="M35.0977 43.6145C35.8831 42.8291 35.8831 41.5557 35.0977 40.7703C34.3123 39.9849 33.0389 39.9849 32.2535 40.7703C31.4681 41.5557 31.4681 42.8291 32.2535 43.6145C33.0389 44.3999 34.3123 44.3999 35.0977 43.6145Z" fill="#398276"/>
<path d="M35.6857 42.196C35.6666 42.196 35.6693 42.0179 35.5844 41.7138C35.4625 41.2893 35.2033 40.9174 34.8473 40.6561C34.562 40.4442 34.2233 40.3158 33.8693 40.2851C33.5152 40.2545 33.1595 40.3228 32.842 40.4825C32.5245 40.6422 32.2576 40.887 32.0711 41.1896C31.8846 41.4921 31.7858 41.8406 31.7858 42.196C31.7858 42.5514 31.8846 42.8998 32.0711 43.2024C32.2576 43.505 32.5245 43.7497 32.842 43.9095C33.1595 44.0692 33.5152 44.1375 33.8693 44.1068C34.2233 44.0762 34.562 43.9478 34.8473 43.7359C35.2027 43.474 35.4618 43.1023 35.5844 42.6782C35.6693 42.3741 35.6666 42.196 35.6857 42.196C35.7049 42.196 35.6857 42.2398 35.6857 42.3248C35.6901 42.4502 35.6772 42.5755 35.6474 42.6974C35.549 43.1549 35.293 43.5632 34.924 43.851C34.6483 44.0674 34.3224 44.2105 33.9765 44.2671C33.6306 44.3236 33.276 44.2917 32.9457 44.1743C32.5369 44.0294 32.183 43.7614 31.9327 43.4071C31.6824 43.0529 31.548 42.6298 31.548 42.196C31.548 41.7622 31.6824 41.3391 31.9327 40.9849C32.183 40.6306 32.5369 40.3626 32.9457 40.2177C33.2759 40.1007 33.6302 40.0687 33.9759 40.1248C34.3217 40.1808 34.6477 40.323 34.924 40.5383C35.2928 40.8274 35.5487 41.2365 35.6474 41.6946C35.6772 41.8164 35.6901 41.9418 35.6857 42.0672C35.6994 42.1467 35.694 42.196 35.6857 42.196Z" fill="#263238"/>
<path d="M104.468 49.0843L107.904 48.5363C110.156 50.3534 113.006 51.2623 115.894 51.0844C118.783 50.9065 121.5 49.6546 123.512 47.5749C125.524 45.4952 126.685 42.7381 126.767 39.8456C126.85 36.9531 125.847 34.1344 123.956 31.9437C122.066 29.753 119.424 28.3488 116.551 28.007C113.677 27.6653 110.78 28.4108 108.428 30.0969C106.077 31.783 104.441 34.2879 103.842 37.119C103.244 39.9501 103.726 42.9027 105.194 45.3963L104.468 49.0843Z" fill="white"/>
<path d="M104.468 49.0844C104.468 49.0844 104.468 49.0076 104.506 48.8515L104.638 48.15C104.756 47.5198 104.931 46.5964 105.158 45.3908C105.159 45.3869 105.16 45.3831 105.163 45.3798C105.165 45.3765 105.168 45.3737 105.171 45.3716C105.175 45.3695 105.178 45.3682 105.182 45.3677C105.186 45.3673 105.19 45.3677 105.194 45.3689C105.197 45.3675 105.199 45.3667 105.202 45.3667C105.205 45.3667 105.208 45.3675 105.211 45.3689L105.161 45.4073C104.181 43.7521 103.626 41.8796 103.547 39.9574C103.523 39.3592 103.546 38.76 103.616 38.1655C103.697 37.529 103.827 36.8997 104.005 36.2831C104.652 34.0477 105.956 32.058 107.746 30.5719C109.537 29.0858 111.733 28.1717 114.05 27.948C115.867 27.7765 117.7 28.0362 119.398 28.7061C121.096 29.376 122.612 30.4371 123.823 31.8032L124.289 32.3512C124.434 32.543 124.563 32.743 124.706 32.9348C124.976 33.3247 125.222 33.731 125.443 34.1514C125.563 34.3541 125.64 34.5788 125.741 34.7898C125.843 35.0008 125.947 35.2117 126.015 35.4364C126.178 35.8713 126.312 36.3161 126.418 36.7681C126.84 38.5244 126.854 40.3539 126.459 42.1165C125.931 44.4086 124.719 46.4863 122.985 48.0753C121.251 49.6643 119.075 50.6897 116.746 51.0161C116.106 51.1029 115.46 51.1405 114.814 51.1284C114.215 51.0999 113.617 51.0359 113.025 50.9366C111.14 50.5855 109.373 49.7679 107.885 48.5583H107.909L105.339 48.9446L104.684 49.0405L104.468 49.0707L104.695 49.0296L105.356 48.92L107.898 48.498H107.923C109.409 49.6877 111.168 50.489 113.041 50.8297C113.629 50.9276 114.222 50.9889 114.817 51.0133C115.458 51.0237 116.1 50.9843 116.735 50.8955C119.036 50.5625 121.183 49.5419 122.895 47.9675C124.606 46.3931 125.802 44.3384 126.325 42.0727C126.712 40.3303 126.696 38.5225 126.278 36.7872C126.171 36.3416 126.038 35.9025 125.881 35.472C125.813 35.2501 125.697 35.0473 125.607 34.8336C125.517 34.6199 125.429 34.4034 125.311 34.2034C125.094 33.7882 124.851 33.3873 124.582 33.0033C124.445 32.8115 124.308 32.6142 124.171 32.4252L123.711 31.8772C122.515 30.5277 121.017 29.4789 119.34 28.8158C117.663 28.1527 115.854 27.8939 114.058 28.0603C112.468 28.2174 110.928 28.7025 109.536 29.4849C108.143 30.2673 106.928 31.3301 105.967 32.606C105.129 33.7222 104.503 34.9824 104.12 36.3242C103.943 36.9346 103.812 37.5574 103.728 38.1874C103.656 38.7772 103.63 39.3718 103.651 39.9656C103.718 41.8744 104.256 43.737 105.216 45.3881C105.221 45.3937 105.224 45.401 105.224 45.4086C105.224 45.4163 105.221 45.4236 105.216 45.4292C105.211 45.4337 105.204 45.4361 105.197 45.4361C105.19 45.4361 105.183 45.4337 105.178 45.4292L105.227 45.4128C104.986 46.6047 104.8 47.5198 104.679 48.1528C104.616 48.4624 104.567 48.7008 104.534 48.8597C104.501 49.0186 104.468 49.0844 104.468 49.0844Z" fill="#263238"/>
<path d="M118.686 39.8615C118.685 39.6288 118.754 39.4012 118.883 39.2074C119.012 39.0137 119.195 38.8626 119.41 38.7733C119.625 38.684 119.862 38.6605 120.09 38.7058C120.318 38.751 120.528 38.863 120.692 39.0276C120.857 39.1922 120.969 39.4019 121.014 39.6301C121.06 39.8584 121.036 40.095 120.947 40.3099C120.857 40.5248 120.706 40.7083 120.513 40.8373C120.319 40.9662 120.091 41.0348 119.859 41.0342C119.548 41.0335 119.25 40.9097 119.03 40.69C118.81 40.4702 118.687 40.1723 118.686 39.8615Z" fill="#263238"/>
<path d="M113.984 39.8615C113.983 39.6289 114.052 39.4014 114.181 39.2077C114.31 39.0141 114.493 38.863 114.708 38.7736C114.922 38.6842 115.159 38.6605 115.387 38.7056C115.615 38.7506 115.825 38.8624 115.99 39.0266C116.154 39.1909 116.267 39.4004 116.312 39.6284C116.358 39.8565 116.335 40.093 116.246 40.308C116.157 40.5229 116.006 40.7067 115.813 40.8359C115.619 40.9652 115.392 41.0342 115.159 41.0342C114.848 41.0342 114.55 40.9108 114.329 40.6909C114.109 40.4711 113.985 40.1728 113.984 39.8615Z" fill="#263238"/>
<path d="M109.296 40.4479C109.18 40.2465 109.126 40.0153 109.141 39.7833C109.156 39.5513 109.24 39.329 109.381 39.1445C109.523 38.9601 109.716 38.8217 109.936 38.747C110.156 38.6723 110.393 38.6645 110.618 38.7246C110.843 38.7848 111.044 38.9102 111.198 39.085C111.351 39.2598 111.449 39.4761 111.479 39.7066C111.51 39.9371 111.471 40.1715 111.368 40.38C111.265 40.5885 111.103 40.7618 110.902 40.8781C110.631 41.0332 110.311 41.075 110.01 40.9944C109.709 40.9138 109.452 40.7173 109.296 40.4479Z" fill="#263238"/>
<path d="M27.2054 81.926C26.4848 81.5835 25.271 80.8684 24.5202 80.5889C23.7781 80.2714 22.9502 80.2154 22.1721 80.43C21.7309 80.5779 21.2898 80.9314 21.287 81.3972L24.2325 83.57L27.2054 82.7864V81.926Z" fill="#FF9A6C"/>
<path d="M23.9832 81.8959C23.9832 81.8959 18.6923 80.7478 17.81 80.2957C16.9277 79.8436 12.33 77.542 11.56 77.542C10.7901 77.542 10.1325 77.7503 9.99277 78.5175L10.9983 79.2984L11.1271 79.6984L12.8478 80.5944L13.152 81.1588L17.536 83.4988C17.536 83.4988 22.1337 85.8333 22.9009 85.9648C23.6681 86.0963 27.4986 86.4169 29.1371 87.8115L35.7131 85.1099C35.7131 85.1099 33.8143 82.4137 32.3512 81.7479C31.0469 81.1561 28.8577 81.1561 27.326 81.7835L23.9832 81.8959Z" fill="#FFBF9D"/>
<path d="M28.3836 86.31C28.3836 86.31 36.7543 104.564 38.1024 108.23C38.1024 108.23 47.4595 106.69 47.7801 101.498L35.7241 85.0578L28.3836 86.31Z" fill="#FFBF9D"/>
<path d="M20.6103 82.3096C20.6103 82.3096 20.5774 82.3096 20.5198 82.3096C20.4342 82.301 20.3498 82.2836 20.2678 82.2576C19.9677 82.1662 19.6761 82.0489 19.3964 81.9068C19.0402 81.7342 18.6265 81.5068 18.1717 81.252C17.9442 81.1259 17.7059 80.9917 17.4565 80.8629C17.2072 80.7341 16.9359 80.6218 16.6592 80.5012C16.1468 80.2692 15.6173 80.0768 15.0755 79.9258C14.5795 79.8025 14.1028 79.7094 13.7438 79.8299C13.6046 79.8857 13.4783 79.9694 13.3727 80.0759C13.2671 80.1824 13.1846 80.3094 13.1301 80.4492C13.0896 80.5559 13.0429 80.6602 12.9903 80.7615C12.9903 80.7615 12.9903 80.7286 13.004 80.6738C13.0223 80.5899 13.0471 80.5074 13.078 80.4272C13.1264 80.2994 13.1919 80.1787 13.2725 80.0683C13.3792 79.9174 13.5278 79.8011 13.7 79.734C13.9124 79.6629 14.1381 79.6404 14.3603 79.6683C14.6089 79.6928 14.8552 79.7358 15.0974 79.797C15.6508 79.9429 16.1915 80.1335 16.714 80.367C16.988 80.4875 17.262 80.5999 17.5168 80.7341C17.7716 80.8684 18.0073 81.0081 18.2347 81.1369C18.6868 81.3972 19.0923 81.6328 19.4403 81.8137C19.7099 81.961 19.9891 82.09 20.276 82.2C20.4897 82.2795 20.6103 82.2959 20.6103 82.3096Z" fill="#FF9A6C"/>
<path d="M15.5632 79.6847C15.3052 79.6326 15.0555 79.546 14.8207 79.4271C14.2555 79.1604 13.6745 78.9289 13.0808 78.7339C12.7559 78.6419 12.4164 78.613 12.0807 78.649C11.9467 78.653 11.815 78.6843 11.6934 78.7408C11.5719 78.7973 11.4631 78.8779 11.3737 78.9778C11.2666 79.1263 11.1962 79.2982 11.1682 79.4792C11.1658 79.5495 11.1519 79.6189 11.1271 79.6847C11.1143 79.615 11.1143 79.5435 11.1271 79.4737C11.1374 79.2782 11.1998 79.0889 11.308 78.9257C11.3918 78.8115 11.5005 78.7178 11.6258 78.6517C11.7691 78.5836 11.9229 78.54 12.0807 78.5229C12.4341 78.4785 12.7928 78.5055 13.1356 78.6024C13.7377 78.7956 14.321 79.0432 14.8782 79.3422C15.1125 79.444 15.3412 79.5583 15.5632 79.6847Z" fill="#FF9A6C"/>
<path d="M28.77 81.378C28.77 81.378 28.696 81.4219 28.5563 81.4712C28.3559 81.5436 28.1519 81.6058 27.9452 81.6575C27.265 81.8345 26.5679 81.9383 25.8656 81.9671C25.1635 81.9974 24.4602 81.9552 23.7667 81.8411C23.4927 81.7945 23.29 81.7479 23.1448 81.7068C23.0671 81.6951 22.992 81.6701 22.9228 81.6328C22.9228 81.6109 23.2516 81.6739 23.7832 81.7397C24.472 81.8249 25.1666 81.8533 25.8601 81.8246C26.5541 81.7888 27.2441 81.6972 27.9233 81.5506C28.4302 81.452 28.7508 81.3588 28.77 81.378Z" fill="#FF9A6C"/>
<path d="M106.707 70.5413L94.53 68.0205L91.516 65.76L75.4322 68.8617C75.1746 69.333 72.5689 72.9717 72.5689 72.9717L66.234 75.1226C63.5416 75.83 61.1384 77.3632 59.3621 79.5066C57.673 81.5926 56.2892 83.9083 55.2521 86.384C52.4025 93.0723 48.2898 100.799 48.2898 100.799L45.7114 96.6453L34.8446 101.764C34.8446 101.764 41.2096 114.595 43.3167 116.428C45.6594 118.464 51.0462 118.7 54.7699 114.902C57.0139 112.611 63.4995 103.558 64.8503 101.292L66.856 110.767L68.7 121.582L65.7189 129.027H109.23L107.43 121.99C107.43 121.99 109.203 103.651 109.693 100.237C110.847 92.1846 106.707 70.5413 106.707 70.5413Z" fill="#398276"/>
<path d="M106.707 70.5413C106.707 70.5413 115.42 72.9854 117.338 81.6465C118.5 86.8936 122.445 101.851 123.834 114.165C124.656 121.486 124.634 128.251 124.656 129.027H111.285L105.619 72.9854L106.707 70.5413Z" fill="#398276"/>
<path d="M84.3591 77.9777C84.3591 77.9777 84.3591 78.0106 84.3235 78.0681L84.2002 78.3202C84.0906 78.5421 83.9262 78.8682 83.7481 79.2819C83.3617 80.1039 82.9069 81.3232 82.1726 82.685L82.1369 82.7535L82.0767 82.7014C81.1725 81.9315 80.1916 81.0054 79.1778 80.0053C77.3831 78.2243 75.8103 76.5666 74.6485 75.3911L73.2648 74.0019L72.884 73.6266C72.8376 73.5851 72.7954 73.5392 72.7579 73.4896C72.8109 73.5229 72.8596 73.5625 72.9032 73.6074L73.2977 73.9636C73.6375 74.2759 74.1197 74.739 74.7143 75.3199C75.8952 76.4789 77.4817 78.1256 79.2709 79.9039C80.2847 80.904 81.2601 81.8219 82.1534 82.6055L82.0548 82.622C82.7946 81.2794 83.2658 80.0656 83.6714 79.249C83.8714 78.8353 84.0385 78.5175 84.1591 78.301C84.2139 78.2051 84.2605 78.1229 84.2988 78.0599C84.3159 78.0304 84.3361 78.0029 84.3591 77.9777Z" fill="black"/>
<path d="M94.6999 68.3301C94.699 68.3948 94.6907 68.4592 94.6752 68.5219C94.6478 68.6589 94.6149 68.8398 94.5738 69.0699C94.4752 69.5412 94.2998 70.2207 94.0752 71.0482C93.6011 72.6922 92.8339 74.9637 91.8832 77.416C91.3817 78.7147 90.8885 79.9423 90.4282 81.03L90.3926 81.115L90.3241 81.0547C89.0829 79.9587 87.9704 79.0956 87.2169 78.4544C86.8388 78.1339 86.5429 77.8763 86.3429 77.6955L86.1209 77.4872C86.0689 77.4379 86.0442 77.4132 86.047 77.4105C86.0785 77.427 86.1079 77.4472 86.1346 77.4708L86.3703 77.6653L87.2663 78.3942C88.0362 79.0189 89.1569 79.8655 90.4118 80.9561L90.3077 80.9807C90.7598 79.8847 91.2502 78.6627 91.7489 77.3667C92.6887 74.9007 93.4696 72.6676 93.9656 71.0208C94.2122 70.1988 94.393 69.5248 94.5136 69.0562C94.5656 68.8343 94.6095 68.6562 94.6423 68.5082C94.657 68.4475 94.6763 68.388 94.6999 68.3301Z" fill="black"/>
<path d="M66.5135 109.553C66.502 109.535 66.4937 109.514 66.4888 109.493L66.4313 109.307C66.382 109.124 66.3135 108.883 66.2258 108.583C66.1326 108.271 66.0422 107.885 65.9326 107.435C65.823 106.986 65.7052 106.471 65.5874 105.901C64.9812 102.928 64.5548 99.9215 64.3105 96.8974C64.0009 93.3546 63.9324 90.1351 63.9489 87.8088C63.9489 86.6443 63.979 85.7017 64.0119 85.0524C64.0283 84.7345 64.0393 84.4852 64.0475 84.3016C64.0475 84.2249 64.0475 84.1591 64.0612 84.107C64.0583 84.0852 64.0583 84.0631 64.0612 84.0413C64.0634 84.0641 64.0634 84.087 64.0612 84.1098V84.3043C64.0612 84.4879 64.0612 84.7373 64.0612 85.0524C64.0612 85.7045 64.0393 86.6443 64.0448 87.8088C64.0448 90.1323 64.1379 93.3491 64.4475 96.8837C64.694 99.9033 65.1056 102.907 65.6805 105.882C65.7929 106.452 65.897 106.978 66.0039 107.416C66.1107 107.855 66.1902 108.257 66.2779 108.57L66.4587 109.299L66.4998 109.488C66.5135 109.532 66.5162 109.553 66.5135 109.553Z" fill="black"/>
<path d="M107.43 80.1478C107.446 80.1714 107.459 80.1973 107.468 80.2245C107.493 80.282 107.526 80.356 107.564 80.4492C107.652 80.6574 107.77 80.9506 107.923 81.3205C108 81.5123 108.09 81.7205 108.178 81.9534L108.438 82.7206C108.531 82.9946 108.63 83.2933 108.737 83.6056C108.844 83.918 108.915 84.2605 109.011 84.614C109.833 87.4334 110.244 91.5133 110.008 95.9767C109.773 100.44 109.247 104.471 108.912 107.364C108.745 108.811 108.608 109.986 108.512 110.808C108.466 111.206 108.427 111.521 108.4 111.743L108.367 111.987C108.365 112.015 108.359 112.042 108.351 112.069C108.347 112.041 108.347 112.014 108.351 111.987L108.37 111.74C108.392 111.515 108.422 111.192 108.457 110.803C108.534 109.981 108.655 108.808 108.811 107.353C109.11 104.443 109.614 100.427 109.855 95.9713C110.096 91.516 109.69 87.4581 108.904 84.6386L108.63 83.6303L108.356 82.748C108.268 82.474 108.186 82.2137 108.109 81.9781C108.033 81.7424 107.94 81.5315 107.866 81.3397C107.723 80.9643 107.613 80.6711 107.531 80.4601C107.498 80.3642 107.471 80.2902 107.449 80.23C107.438 80.2037 107.432 80.176 107.43 80.1478Z" fill="black"/>
<path d="M48.361 110.129C48.3226 110.129 48.276 108.041 48.2596 105.471C48.2432 102.901 48.2596 100.813 48.3007 100.813C48.3418 100.813 48.3856 102.901 48.4021 105.471C48.4185 108.041 48.4021 110.129 48.361 110.129Z" fill="black"/>
<path d="M87.8992 122.774V122.659C87.8992 122.577 87.9211 122.467 87.9376 122.325C87.9759 122.023 88.028 121.593 88.0965 121.04C88.1321 120.766 88.1705 120.45 88.2143 120.113C88.2581 119.776 88.291 119.404 88.3321 119.017C88.4116 118.223 88.5212 117.321 88.6061 116.318C88.6472 115.82 88.6883 115.294 88.7349 114.748C88.7815 114.203 88.8034 113.633 88.839 113.044C88.9212 111.866 88.9568 110.603 89.0034 109.277C89.0637 106.622 89.0555 103.701 88.9185 100.64C88.7815 97.5796 88.502 94.6698 88.1924 92.0311C88.0197 90.7132 87.8691 89.461 87.6745 88.2965C87.5841 87.7129 87.5046 87.1484 87.4005 86.6087C87.2964 86.0689 87.2115 85.551 87.1265 85.0551C86.9594 84.066 86.7676 83.1782 86.6114 82.3945C86.5319 82.0027 86.4607 81.6383 86.3922 81.2985C86.3237 80.9588 86.2497 80.6601 86.1867 80.3861L85.9127 79.123C85.8853 78.9832 85.8606 78.8737 85.8442 78.7942C85.8277 78.7147 85.825 78.6791 85.825 78.6791C85.8389 78.7147 85.8499 78.7514 85.8579 78.7887L85.9428 79.1148L86.247 80.3752L86.4634 81.2849C86.5347 81.6191 86.6114 81.9808 86.6963 82.3809C86.858 83.1618 87.058 84.0495 87.2306 85.0386C87.322 85.5337 87.4133 86.0515 87.5046 86.5922C87.6033 87.1402 87.6827 87.6882 87.7786 88.2801C87.9759 89.4473 88.1321 90.6995 88.3102 92.0174C88.6253 94.6588 88.8938 97.5714 89.0472 100.635C89.2007 103.698 89.1897 106.624 89.1212 109.282C89.0692 110.611 89.0308 111.874 88.9431 113.052C88.9048 113.642 88.8774 114.211 88.8308 114.759C88.7842 115.307 88.7349 115.831 88.6911 116.332C88.6143 117.335 88.4965 118.25 88.4171 119.028C88.3705 119.426 88.3266 119.796 88.2883 120.124C88.2499 120.453 88.1978 120.771 88.1567 121.05C88.0773 121.598 88.0143 122.031 87.9732 122.33L87.9211 122.664C87.9169 122.701 87.9096 122.738 87.8992 122.774Z" fill="black"/>
<path d="M93.6916 93.1984H93.7464L93.919 93.1792L94.5903 93.1025L97.1577 92.8285L106.296 91.8804H106.364V91.9489C106.433 94.7136 106.515 97.8427 106.6 101.161V101.191L106.581 101.21L105.485 102.397L101.49 106.665L101.454 106.704L101.407 106.679L94.6752 103.336L94.6451 103.323V103.298C94.3519 100.243 94.0971 97.7166 93.9409 95.9439C93.8587 95.0725 93.7957 94.3875 93.7518 93.9135C93.7327 93.6861 93.7162 93.5107 93.7053 93.382C93.6943 93.2532 93.7053 93.2066 93.7053 93.2066C93.7053 93.2066 93.7053 93.2724 93.7299 93.3929C93.7546 93.5135 93.7655 93.7025 93.7929 93.9409C93.8423 94.4204 93.9162 95.1082 94.0121 95.985C94.1957 97.744 94.456 100.257 94.7739 103.295L94.741 103.249L101.481 106.572L101.402 106.586L105.389 102.301L106.485 101.117L106.465 101.166C106.386 97.8482 106.309 94.7218 106.243 91.9544L106.315 92.0147L97.2042 92.886L94.6204 93.1271L93.9327 93.1874L93.7546 93.2039L93.6916 93.1984Z" fill="black"/>
<path d="M106.38 95.1273C106.225 95.1705 106.067 95.2007 105.906 95.2178C105.6 95.2671 105.156 95.3301 104.605 95.4013C103.509 95.5411 101.977 95.7027 100.292 95.8644L95.974 96.2864L94.667 96.4234C94.5085 96.4488 94.3481 96.4608 94.1875 96.459C94.3428 96.4159 94.5013 96.3856 94.6615 96.3686C94.9684 96.3192 95.4123 96.2562 95.963 96.185C97.059 96.0452 98.5907 95.8836 100.279 95.7219L104.594 95.3L105.901 95.163C106.06 95.1375 106.22 95.1256 106.38 95.1273Z" fill="black"/>
<g opacity="0.3">
<path d="M109.027 105.904L109.488 111.502C110.504 106.707 112.102 101.553 111.852 96.659C111.603 91.7653 111.143 87.0827 108.386 82.6521C109.585 85.9879 110.134 89.522 110.006 93.0641C109.753 98.7907 109.027 105.904 109.027 105.904Z" fill="black"/>
</g>
<path d="M46.5471 95.4835C46.3991 95.1463 46.1372 94.8718 45.8073 94.7081C45.4237 94.5766 45.0072 94.7629 44.6428 94.9438L34.7021 99.8922C34.0472 100.218 33.3321 100.605 33.091 101.29C32.7759 102.166 33.365 103.093 33.913 103.846C34.8281 105.104 35.9241 106.474 37.475 106.652L46.0265 100.788C47.0705 100.635 47.7198 99.4702 47.6705 98.4153C47.6212 97.3604 47.0787 96.3987 46.5471 95.4835Z" fill="#398276"/>
<path d="M47.6267 99.0675C47.6013 99.1028 47.5719 99.135 47.539 99.1634L47.265 99.4182C47.0293 99.6374 46.6814 99.947 46.2457 100.32C45.3716 101.068 44.1304 102.062 42.6837 103.076C41.237 104.09 39.9136 104.926 38.908 105.49C38.4093 105.778 38.001 106.002 37.7161 106.15L37.3873 106.318C37.3106 106.356 37.2695 106.372 37.2667 106.367C37.2984 106.337 37.3344 106.312 37.3736 106.293L37.6887 106.101L38.8559 105.402C39.8396 104.811 41.1794 103.961 42.6097 102.95C44.04 101.939 45.2894 100.961 46.1717 100.235L47.2211 99.3661L47.4951 99.1332C47.5883 99.0894 47.6239 99.062 47.6267 99.0675Z" fill="black"/>
<g opacity="0.3">
<path d="M94.5711 68.9576C93.4011 72.8429 91.7626 77.2379 90.3789 81.0136C89.2007 80.0135 87.5512 78.6901 86.3703 77.6872C87.3866 79.7036 88.6068 81.6105 90.0117 83.3782C90.1761 83.5837 90.3953 83.8084 90.6501 83.7591C90.905 83.7097 91.0201 83.4467 91.1077 83.2111L93.2641 77.5036C94.2724 74.8349 95.2451 71.7222 94.5711 68.9576Z" fill="black"/>
</g>
<path d="M76.0761 26.6876C79.6381 25.6629 82.9699 26.6876 86.2552 28.3919C89.5404 30.0962 92.19 32.9102 93.9053 36.1845C95.7137 39.6341 96.5138 43.6537 95.8589 47.4924C95.204 51.3312 93.0339 54.948 89.7843 57.0824C85.3428 60.0088 79.2216 59.8553 74.6485 57.1455C70.0755 54.4356 67.0642 49.4406 66.2669 44.1825C65.7189 40.5602 66.1628 36.7407 67.8533 33.4965C69.5439 30.2524 72.5333 27.622 76.0734 26.6849" fill="#263238"/>
<path d="M87.7704 37.8367C87.0827 36.5132 87.1128 34.9432 86.7374 33.4965C85.9154 30.3154 83.011 28.0165 79.8546 27.0986C76.92 26.241 73.5252 26.8849 70.2646 28.359C68.0342 29.3701 66.0039 30.9209 64.6722 32.9759C63.8013 34.3533 63.2722 35.919 63.1292 37.5424C62.9863 39.1658 63.2334 40.7999 63.8502 42.3083L80.1231 38.0285C81.8164 39.1245 83.5508 40.2561 85.5099 40.7685C86.0799 40.9448 86.6855 40.9722 87.269 40.8479C87.5586 40.7795 87.8223 40.6291 88.0288 40.4149C88.2353 40.2006 88.3758 39.9315 88.4335 39.6396C88.502 38.9875 88.0691 38.4148 87.7704 37.8367Z" fill="#263238"/>
<path d="M91.653 66.6916L87.4526 37.1489C87.2662 35.7515 86.6306 34.3267 85.2249 34.3925L70.4289 32.9677C65.7929 33.1814 63.6173 39.2697 64.0283 43.8811C64.4859 49.0159 65.2449 55.2658 66.4258 58.9703C68.8014 66.4149 74.7992 66.4916 74.7992 66.4916C74.7992 66.4916 75.1637 67.9712 75.6212 70.7386L85.2112 77.1173L91.653 66.6916Z" fill="#FFBF9D"/>
<path d="M67.604 49.5009C67.6408 49.7564 67.776 49.9874 67.9808 50.1445C68.1856 50.3017 68.4437 50.3726 68.7 50.342C68.826 50.3331 68.949 50.2991 69.0616 50.2418C69.1743 50.1846 69.2743 50.1053 69.3558 50.0088C69.4372 49.9122 69.4986 49.8003 69.536 49.6797C69.5735 49.559 69.5865 49.4321 69.5741 49.3063C69.5366 49.0509 69.4013 48.8201 69.1968 48.6626C68.9923 48.5052 68.7346 48.4334 68.4781 48.4624C68.3521 48.472 68.2292 48.5067 68.1168 48.5643C68.0043 48.622 67.9045 48.7015 67.8231 48.7982C67.7417 48.8949 67.6804 49.0068 67.6428 49.1275C67.6052 49.2481 67.592 49.3751 67.604 49.5009Z" fill="#263238"/>
<path d="M65.8778 46.9116C66.0175 47.0212 66.6751 46.3636 67.73 46.2019C68.7849 46.0402 69.6343 46.454 69.7302 46.306C69.7768 46.2403 69.6179 46.032 69.2453 45.8347C68.7411 45.5901 68.174 45.5059 67.6204 45.5936C67.0722 45.675 66.5644 45.9294 66.171 46.3197C65.8833 46.6156 65.8093 46.854 65.8778 46.9116Z" fill="#263238"/>
<path d="M77.3392 47.9171C77.3754 48.1731 77.5103 48.4048 77.7152 48.5625C77.92 48.7203 78.1785 48.7915 78.4352 48.761C78.5613 48.7521 78.6842 48.7181 78.7969 48.6608C78.9095 48.6036 79.0095 48.5243 79.091 48.4278C79.1725 48.3312 79.2338 48.2193 79.2713 48.0987C79.3088 47.978 79.3217 47.8511 79.3093 47.7253C79.2731 47.4693 79.1382 47.2377 78.9333 47.0799C78.7285 46.9222 78.47 46.8509 78.2133 46.8814C78.0874 46.8907 77.9646 46.925 77.8522 46.9824C77.7397 47.0397 77.6399 47.119 77.5584 47.2155C77.477 47.3119 77.4157 47.4237 77.3781 47.5442C77.3404 47.6647 77.3272 47.7915 77.3392 47.9171Z" fill="#263238"/>
<path d="M75.898 45.5169C76.0377 45.6265 76.6981 44.9689 77.7502 44.8072C78.8024 44.6456 79.6545 45.0593 79.7504 44.9114C79.797 44.8456 79.6381 44.6374 79.2654 44.4401C78.7604 44.1949 78.1923 44.1107 77.6379 44.199C77.0827 44.2808 76.5687 44.5392 76.172 44.936C75.898 45.21 75.824 45.484 75.898 45.5169Z" fill="#263238"/>
<path d="M73.6293 53.9205C73.6293 53.8602 72.9525 53.8465 71.8729 53.8739C71.5989 53.8739 71.3249 53.8739 71.2619 53.6958C71.1989 53.5177 71.2372 53.2053 71.3194 52.8738C71.4729 52.1851 71.6345 51.4627 71.8044 50.7064C72.462 47.6212 72.9004 45.1031 72.7716 45.0785C72.6429 45.0538 72.0127 47.5445 71.3523 50.6133C71.1961 51.3723 71.0454 52.0984 70.9057 52.7916C70.8509 53.1122 70.7276 53.4848 70.9276 53.8657C70.9801 53.9552 71.0528 54.0313 71.1398 54.0879C71.2269 54.1445 71.3259 54.18 71.429 54.1917C71.5836 54.2127 71.7403 54.2127 71.8948 54.1917C72.9717 54.0766 73.6347 53.978 73.6293 53.9205Z" fill="#263238"/>
<path d="M74.802 66.4916C78.4046 65.9964 81.7988 64.5099 84.6057 62.198C84.6057 62.198 82.2137 68.1849 75.2897 68.7877L74.802 66.4916Z" fill="#FF9A6C"/>
<path d="M74.4622 56.3919C74.6239 56.1093 74.8548 55.8724 75.1334 55.7037C75.4119 55.5349 75.7288 55.4399 76.0542 55.4275C76.2906 55.4138 76.5274 55.4483 76.7502 55.5289C76.973 55.6094 77.1771 55.7343 77.3502 55.896C77.5177 56.0504 77.6338 56.2524 77.6828 56.4749C77.7318 56.6974 77.7114 56.9295 77.6242 57.14C77.4022 57.5811 76.8214 57.7647 76.298 57.688C75.7737 57.5881 75.2745 57.3851 74.8294 57.0906C74.6968 57.0226 74.5786 56.9296 74.4814 56.8166C74.4337 56.7647 74.4024 56.6997 74.3917 56.6299C74.381 56.5601 74.3912 56.4888 74.4211 56.4248" fill="#FF9A6C"/>
<path d="M76.8405 54.1753C76.6652 54.1917 76.8405 55.337 75.9829 56.296C75.1253 57.255 73.895 57.3181 73.9087 57.477C73.9087 57.5537 74.2156 57.6578 74.7307 57.5948C75.4022 57.5017 76.0193 57.1747 76.4734 56.6714C76.9091 56.1892 77.14 55.5564 77.1173 54.9069C77.0872 54.4219 76.9173 54.1588 76.8405 54.1753Z" fill="#263238"/>
<path d="M75.5966 42.3714C75.7446 42.6454 76.7748 42.3467 78.0325 42.3056C79.2901 42.2645 80.3423 42.4508 80.4656 42.1686C80.5204 42.0343 80.3067 41.7932 79.86 41.5768C79.2705 41.3193 78.6301 41.1994 77.9874 41.2259C77.3446 41.2525 76.7164 41.425 76.1501 41.7302C75.7254 41.9823 75.5308 42.2426 75.5966 42.3714Z" fill="#263238"/>
<path d="M65.486 42.2618C65.7079 42.4728 66.3957 42.1138 67.267 41.9686C68.1383 41.8234 68.911 41.8837 69.0315 41.6069C69.0891 41.4727 68.9356 41.2535 68.5794 41.0754C68.1044 40.8708 67.5794 40.8116 67.0708 40.9052C66.5622 40.9989 66.0927 41.2411 65.7216 41.6014C65.4449 41.8946 65.3819 42.1577 65.486 42.2618Z" fill="#263238"/>
<path d="M90.1652 35.3077C88.1705 31.0771 80.9533 25.8245 76.372 26.7644L69.5796 32.1786C69.9874 33.4072 70.7196 34.5028 71.6986 35.3497C72.6777 36.1966 73.8673 36.7633 75.1418 36.99C76.4981 37.2147 78.0873 37.1133 79.0134 38.1326C79.9395 39.1519 79.7176 40.9055 80.6135 41.9878C81.8548 43.4893 84.6386 43.0399 85.6414 44.7113C86.0826 45.4402 86.0305 46.3882 86.4799 47.1116C87.0827 48.0733 89.8473 49.0296 90.8639 48.5419C91.8804 48.0542 91.6503 46.2348 91.8722 45.2292C92.2531 43.5167 91.8914 42.7029 91.5735 41.8152C90.831 39.7109 91.1187 37.3243 90.1652 35.3077Z" fill="#263238"/>
<path d="M87.8307 49.868C87.7457 49.2981 88.1978 47.8596 88.7458 47.676C90.209 47.2157 92.9298 46.9225 93.5354 50.7257C94.3574 55.9317 88.976 55.6823 88.9404 55.5343C88.9048 55.3864 88.1266 51.8244 87.8307 49.868Z" fill="#FFBF9D"/>
<path d="M90.2145 53.3149C90.2364 53.293 90.3159 53.3642 90.4885 53.4081C90.7184 53.4675 90.9625 53.434 91.168 53.3149C91.6831 53.0272 92.0064 52.0819 91.8831 51.1394C91.825 50.692 91.6677 50.2633 91.4228 49.8844C91.3485 49.7296 91.2375 49.5953 91.0995 49.4931C90.9615 49.391 90.8007 49.324 90.6309 49.2981C90.5225 49.2869 90.4137 49.3142 90.3235 49.3754C90.2332 49.4365 90.1675 49.5275 90.1378 49.6324C90.0912 49.7885 90.1378 49.8872 90.1131 49.9064C90.0884 49.9255 89.9898 49.8379 89.9953 49.6159C90.0043 49.4832 90.0585 49.3575 90.1487 49.2597C90.274 49.1279 90.4464 49.051 90.6282 49.046C91.0337 49.0104 91.4502 49.32 91.7023 49.7009C91.9957 50.1163 92.1838 50.5968 92.2503 51.101C92.3846 52.1532 92.0037 53.219 91.2858 53.567C91.1531 53.6301 91.008 53.6628 90.8611 53.6628C90.7142 53.6628 90.5691 53.6301 90.4364 53.567C90.2446 53.43 90.198 53.3259 90.2145 53.3149Z" fill="#FF9A6C"/>
<path d="M70.9167 30.4277C70.6783 32.6197 67.7547 35.7022 66.5327 37.5188C64.1845 40.9849 63.768 42.0946 64.5955 49.1529C63.0392 46.8595 61.7897 44.5798 61.5815 41.8152C61.3733 39.0505 62.0692 36.1817 63.7571 33.9842C65.4449 31.7868 68.1602 30.34 70.9304 30.4222" fill="#263238"/>
<path d="M83.3316 22.9941C84.4276 21.7858 86.0113 20.9994 87.6553 20.5884C89.998 20.002 92.5709 20.1609 94.7026 21.1802C96.8343 22.1995 98.4838 24.112 98.914 26.304C99.1255 27.43 99.026 28.5924 98.6262 29.6661C98.2265 30.7398 97.5416 31.6842 96.6453 32.3978C97.8642 33.5795 99.3502 34.4499 100.977 34.935C100.533 35.6008 99.7141 35.9899 98.8866 36.1297C98.0547 36.2337 97.2127 36.2281 96.3822 36.1132C96.9491 36.9603 97.7974 37.5795 98.777 37.8613C97.4285 38.1726 96.0222 38.1263 94.6971 37.7271C93.4012 37.3343 92.1608 36.7772 91.0063 36.0694C86.9977 33.7431 84.7865 31.7046 82.0794 28.1234C81.726 26.578 82.2274 24.2052 83.3316 22.9941Z" fill="#263238"/>
<path d="M91.9736 33.976C89.0308 29.677 85.2852 27.3781 81.8958 26.663L91.9736 33.976Z" fill="#263238"/>
<path d="M81.8958 26.663C82.0512 26.7251 82.2116 26.7737 82.3753 26.8082C82.685 26.8959 83.1316 27.0301 83.6686 27.2356C85.0668 27.7788 86.3813 28.5167 87.5731 29.4276C88.7651 30.3363 89.8515 31.3758 90.8118 32.5266C91.1735 32.9732 91.4667 33.3486 91.6557 33.5952C91.7499 33.7349 91.8562 33.8661 91.9736 33.987C91.8943 33.8371 91.8026 33.6941 91.6996 33.5595C91.5242 33.2855 91.2447 32.9156 90.8913 32.4635C89.955 31.2782 88.8765 30.2125 87.68 29.2906C86.4739 28.3706 85.134 27.6406 83.707 27.126C83.2766 26.9729 82.8374 26.8457 82.3918 26.7452C82.2289 26.7046 82.0631 26.6771 81.8958 26.663Z" fill="#455A64"/>
<path d="M95.4808 37.6394L95.415 37.6613L95.2232 37.738C95.0588 37.8093 94.8122 37.9024 94.4889 38.012C93.5751 38.318 92.6273 38.5112 91.6667 38.5874C90.2424 38.6934 88.8104 38.6012 87.4115 38.3134C85.6981 37.9535 84.0228 37.4314 82.4082 36.7544C80.682 36.0502 79.0545 35.3268 77.605 34.6172C76.3176 33.9943 75.0784 33.2762 73.8978 32.469C73.1041 31.9223 72.3547 31.314 71.6565 30.6496C71.4044 30.4167 71.2236 30.2222 71.1085 30.1016L70.9633 29.9564C70.9304 29.9263 70.9139 29.9098 70.9112 29.9126C70.9085 29.9153 70.9112 29.9318 70.9523 29.9674L71.0866 30.1236C71.2044 30.2606 71.3797 30.4606 71.6346 30.7017C72.3212 31.3854 73.0645 32.0096 73.8567 32.5676C75.0332 33.3941 76.2727 34.1271 77.5639 34.7596C79.0161 35.4803 80.6409 36.2091 82.3699 36.916C83.9946 37.595 85.6811 38.1153 87.406 38.4696C88.8187 38.7516 90.2645 38.8309 91.6996 38.7052C92.6589 38.6176 93.6034 38.4095 94.5108 38.086C94.8314 37.9627 95.0753 37.8613 95.2369 37.7791L95.4205 37.6887C95.4616 37.6531 95.4835 37.6421 95.4808 37.6394Z" fill="#455A64"/>
<path d="M79.9559 63.442L79.46 62.472C79.4956 62.4528 82.937 60.6883 84.2605 59.5758C87.3786 56.9564 90.2446 52.7724 90.2748 52.7258L91.179 53.3423C91.0584 53.5204 88.2006 57.6935 84.9647 60.4115C83.5399 61.6007 80.1012 63.368 79.9559 63.442Z" fill="#455A64"/>
<path d="M82.5178 60.4143C82.5178 60.4143 77.816 62.5131 77.816 62.9789C77.816 63.4447 78.5613 64.3763 79.1202 64.3297C79.6792 64.2832 81.2958 63.3735 81.5862 63.0008C81.8767 62.6282 82.3918 61.6692 82.9562 61.2034L82.5178 60.4143Z" fill="#263238"/>
<path d="M91.1406 46.306L90.0446 46.254C90.0843 43.0935 89.54 39.9528 88.439 36.99C86.0607 30.8634 81.4876 27.5754 74.8513 27.2137C74.2476 27.1872 73.6429 27.2286 73.0484 27.337L73.5279 26.8822C73.7602 26.6628 74.0304 26.4874 74.3252 26.3643C74.7294 26.1954 75.1686 26.1277 75.6048 26.167C83.9837 26.8931 87.7704 32.2197 89.472 36.6256C90.6311 39.719 91.1972 43.0031 91.1406 46.306Z" fill="#455A64"/>
<path d="M90.5926 56.2714C92.5099 56.2714 94.0642 54.0363 94.0642 51.2791C94.0642 48.522 92.5099 46.2868 90.5926 46.2868C88.6753 46.2868 87.121 48.522 87.121 51.2791C87.121 54.0363 88.6753 56.2714 90.5926 56.2714Z" fill="#455A64"/>
<path d="M94.0642 51.2791C94.0609 51.2564 94.0609 51.2333 94.0642 51.2106C94.0642 51.1558 94.0642 51.0901 94.0478 51.0079C94.0355 50.749 94.009 50.4911 93.9683 50.2352C93.8267 49.2912 93.4591 48.3954 92.897 47.624C92.7076 47.3746 92.4886 47.1491 92.2448 46.9527C91.9793 46.7435 91.68 46.5814 91.3598 46.4732C91.0171 46.3621 90.6542 46.3275 90.2967 46.3718C89.9185 46.4286 89.5563 46.5639 89.2336 46.7691C88.5497 47.2449 88.0216 47.9121 87.7156 48.6871C87.3734 49.5122 87.1973 50.3968 87.1973 51.2901C87.1973 52.1834 87.3734 53.0679 87.7156 53.8931C88.0213 54.6682 88.5494 55.3355 89.2336 55.8111C89.5563 56.0163 89.9185 56.1516 90.2967 56.2084C90.6542 56.2513 91.0168 56.2168 91.3598 56.107C91.68 55.9988 91.9793 55.8366 92.2448 55.6275C92.488 55.4303 92.7069 55.205 92.897 54.9562C93.4591 54.1848 93.8267 53.289 93.9683 52.345C94.0088 52.0891 94.0353 51.8311 94.0478 51.5723C94.0478 51.4901 94.0478 51.4243 94.0642 51.3695C94.0606 51.3468 94.0606 51.3237 94.0642 51.301C94.0685 51.3237 94.0685 51.3469 94.0642 51.3695V51.5723C94.0613 51.8335 94.043 52.0942 94.0094 52.3532C93.8868 53.314 93.5271 54.2293 92.9627 55.0165C92.7708 55.2746 92.5482 55.5083 92.2996 55.7124C92.0256 55.9337 91.715 56.1053 91.3817 56.2193C91.0226 56.3372 90.642 56.3756 90.2666 56.3317C89.87 56.2748 89.49 56.1348 89.1514 55.9207C88.4424 55.4384 87.8938 54.7552 87.5759 53.9588C87.2232 53.1171 87.0416 52.2136 87.0416 51.301C87.0416 50.3884 87.2232 49.4849 87.5759 48.6432C87.8938 47.8469 88.4424 47.1637 89.1514 46.6814C89.49 46.4673 89.87 46.3273 90.2666 46.2704C90.642 46.2265 91.0226 46.2648 91.3817 46.3827C91.715 46.4968 92.0256 46.6683 92.2996 46.8896C92.5488 47.0931 92.7716 47.3269 92.9627 47.5856C93.5279 48.3724 93.8877 49.2878 94.0094 50.2489C94.0429 50.507 94.0612 50.7668 94.0642 51.027V51.2325C94.066 51.248 94.066 51.2636 94.0642 51.2791Z" fill="#263238"/>
<path d="M91.1269 54.178C92.3481 54.178 93.3381 52.755 93.3381 50.9996C93.3381 49.2442 92.3481 47.8212 91.1269 47.8212C89.9057 47.8212 88.9157 49.2442 88.9157 50.9996C88.9157 52.755 89.9057 54.178 91.1269 54.178Z" fill="#455A64"/>
<path d="M93.3381 50.9996C93.3216 50.9996 93.3381 50.7585 93.2586 50.3338C93.1669 49.7384 92.9319 49.1742 92.5736 48.6898C92.3301 48.3576 91.9921 48.1065 91.6037 47.9692C91.3881 47.8998 91.1599 47.8783 90.9351 47.9062C90.6981 47.9415 90.4712 48.0265 90.2693 48.1555C89.8393 48.455 89.5068 48.8743 89.313 49.3611C89.0963 49.882 88.9854 50.4409 88.987 51.0051C88.9843 51.5695 89.0951 52.1286 89.313 52.6491C89.5068 53.136 89.8393 53.5552 90.2693 53.8547C90.4712 53.9838 90.6981 54.0688 90.9351 54.1041C91.1599 54.132 91.3881 54.1105 91.6037 54.041C91.9921 53.9038 92.3301 53.6527 92.5736 53.3204C92.9319 52.8361 93.1669 52.2719 93.2586 51.6764C93.3271 51.2517 93.3216 51.0106 93.3381 51.0133C93.3417 51.0708 93.3417 51.1285 93.3381 51.186C93.3377 51.3527 93.3267 51.5193 93.3052 51.6846C93.2325 52.2994 93.0053 52.8857 92.6449 53.3889C92.3938 53.744 92.04 54.0136 91.6311 54.1616C91.4004 54.2401 91.1552 54.2663 90.9132 54.2383C90.6564 54.1985 90.4109 54.1051 90.1926 53.9643C89.7371 53.6553 89.3841 53.2174 89.1788 52.7067C88.9528 52.1674 88.8364 51.5885 88.8364 51.0038C88.8364 50.419 88.9528 49.8401 89.1788 49.3008C89.3841 48.7901 89.7371 48.3523 90.1926 48.0432C90.4102 47.9028 90.6547 47.8095 90.9104 47.7692C91.1534 47.7414 91.3994 47.7676 91.6311 47.8459C92.04 47.9939 92.3938 48.2635 92.6449 48.6186C93.0053 49.1218 93.2325 49.7081 93.3052 50.3229C93.3267 50.4882 93.3377 50.6548 93.3381 50.8215C93.3417 50.8809 93.3417 50.9403 93.3381 50.9996Z" fill="#263238"/>
<path d="M91.2804 53.2848C92.1581 53.2848 92.8696 52.2617 92.8696 50.9996C92.8696 49.7376 92.1581 48.7145 91.2804 48.7145C90.4027 48.7145 89.6912 49.7376 89.6912 50.9996C89.6912 52.2617 90.4027 53.2848 91.2804 53.2848Z" fill="#455A64"/>
<path d="M92.8696 50.9996C92.8559 50.9996 92.8559 50.827 92.8065 50.5229C92.736 50.0953 92.5651 49.6906 92.3079 49.3419C92.1346 49.1055 91.8939 48.9269 91.6174 48.8296C91.4599 48.7792 91.293 48.7651 91.1293 48.7883C90.9656 48.8116 90.8093 48.8716 90.6721 48.9638C90.0775 49.3556 89.7624 50.1776 89.7597 50.9969C89.7569 51.8162 90.0775 52.6409 90.6721 53.0327C90.8093 53.125 90.9656 53.1849 91.1293 53.2082C91.293 53.2314 91.4599 53.2174 91.6174 53.167C91.8939 53.0696 92.1346 52.8911 92.3079 52.6546C92.5651 52.3059 92.736 51.9012 92.8065 51.4737C92.8559 51.1695 92.8559 50.9969 92.8696 50.9996C92.8761 51.0405 92.8761 51.0821 92.8696 51.1229C92.8709 51.2429 92.8645 51.3628 92.8504 51.4819C92.8011 51.9272 92.6389 52.3526 92.3791 52.7176C92.1941 52.9703 91.9373 53.1613 91.642 53.2656C91.4737 53.3222 91.2952 53.3418 91.1187 53.3232C90.9317 53.2973 90.7524 53.2319 90.5926 53.1314C90.261 52.9069 90.0042 52.5881 89.8556 52.2162C89.6907 51.826 89.6057 51.4068 89.6057 50.9832C89.6057 50.5596 89.6907 50.1404 89.8556 49.7502C90.0042 49.3783 90.261 49.0595 90.5926 48.835C90.7524 48.7345 90.9317 48.6691 91.1187 48.6432C91.2952 48.6246 91.4737 48.6442 91.642 48.7008C91.9373 48.8051 92.1941 48.9961 92.3791 49.2488C92.6389 49.6138 92.8011 50.0392 92.8504 50.4845C92.8645 50.6036 92.8709 50.7235 92.8696 50.8435C92.8794 50.8951 92.8794 50.948 92.8696 50.9996Z" fill="#263238"/>
</svg>
